<svg id="bbde8b87-8c8a-4387-96de-f2ba084e7c86" data-name="圖層 1" xmlns="http://www.w3.org/2000/svg" viewBox="0 0 319.61 200.15"><defs><style>.a56c4429-cceb-4e5f-9948-f4917babee8e{fill:#6cbdb8;}.aeb23a49-860f-4de2-951c-fcabc747dca9{fill:#fff;stroke:#fff;stroke-miterlimit:10;stroke-width:2px;}</style></defs><path class="a56c4429-cceb-4e5f-9948-f4917babee8e" d="M351.73,487.38c-4.83,0-9.66-.11-14.48,0-3.53.1-4.9-1.28-4.21-4.81a45.57,45.57,0,0,0,1.19-8.4c.06-5.34,3-6.77,7.72-6.82,5.65-.05,11.32-.16,16.92-.76,4.67-.5,8-4.52,7.39-8.4-.74-4.62-3.9-6.19-8.3-6.1-4.66.1-9.33-.15-14,0-4.11.15-5.45-1.63-4.51-5.46a99.76,99.76,0,0,1,2.9-11.06c.46-1.2,2.55-2.43,4-2.52,4.81-.32,9.65-.09,14.48-.17a22.44,22.44,0,0,0,5.44-.56c4.9-1.34,8.41-5.78,7.48-9.75-1.15-4.89-5.12-5.49-9.37-5.43-4.66.07-9.33,0-14,.06-3.35.07-4.5-1.47-3.92-4.64.76-4.1,1.26-8.25,2.33-12.26a4.52,4.52,0,0,1,3.33-2.63c10.16-.17,20.37-.69,30.46.17a19.68,19.68,0,0,1,15.89,28.48c-2.4,4.74-6.18,8.76-8.77,13.41-.87,1.56-.85,4.73.19,6,10.56,13.47-1.24,35.15-13.74,38.35C368.21,486.22,351.81,487.83,351.73,487.38Z" transform="translate(-138.42 -288.59)"/><path class="aeb23a49-860f-4de2-951c-fcabc747dca9" d="M420.94,343.63c-1.43,17.88-10.6,30.29-26.9,37.59-12.54,5.62-24.5,5.33-35.24-4.16-8.55-7.55-9.58-17.48-7.76-27.84,3.16-18,20.63-33.36,39.85-34.24C407.53,314.21,421.71,326.77,420.94,343.63Zm-18.27,3.13c0-5.74-3.23-10.84-7.68-12.63-13.15-5.29-27.44,7.15-26.62,19.95.36,5.59,4.86,11.29,9.86,12.33C390.13,368.9,402.62,358.86,402.67,346.76Z" transform="translate(-138.42 -288.59)"/><path class="aeb23a49-860f-4de2-951c-fcabc747dca9" d="M203.06,316.57c-1,6.9-1.8,13.3-3,19.61-2.44,13-5.25,26-7.62,39.07-1.44,7.88-1.82,8.45-9.84,8.47-1.67,0-3.33,0-5,0-3.29,0-4.38-1.29-3.67-4.68,1.27-6,2.17-12.1,3.15-18.17a6.61,6.61,0,0,0-.17-2.79,89.71,89.71,0,0,0-12.66-.89c-1,0-2.46,2.27-2.82,3.71-1.54,6.12-2.86,12.3-4,18.49-.55,2.92-1.79,4.55-4.91,4.34-.82-.05-1.66,0-2.49.06-11.74.23-11.68.24-9.44-11.05,3.07-15.46,6-30.95,9.06-46.41.64-3.22,1.57-6.39,2.42-9.75h17.61c-.9,4.15-1.76,7.8-2.48,11.48-.45,2.28-.56,4.63-1.1,6.89-.86,3.57.4,4.79,4,4.71,12.53-.29,11,1.55,13.39-11.14,2.32-12.47,2.19-12.5,14.91-12.26C199.57,316.28,200.71,316.41,203.06,316.57Z" transform="translate(-138.42 -288.59)"/><path class="aeb23a49-860f-4de2-951c-fcabc747dca9" d="M439.36,487.64c-9.56,0-9.56,0-7.39-9.51.3-1.3.71-2.58.91-3.89.95-6-.48-8.34-6.46-9.47-2.89-.54-3.72-1.68-3-4.36a15.14,15.14,0,0,0,.87-4.39c-.17-3.49,1.39-4.76,4.73-4.65a8,8,0,0,0,3.82-.94c4.18-2.24,6.47-6.75,5.15-9.77-1.16-2.65-8.33-4.7-11.81-3.08-.9.41-1.58,1.92-1.81,3-3,14.47-5.84,28.95-8.79,43.42-.22,1.07-.8,2.93-1.28,3a148.49,148.49,0,0,1-15.36,0c-.41,0-1.18-3.16-.89-4.68,2.53-13.2,5.29-26.35,7.93-39.53,1.2-6,2.37-12,3.39-18.05.51-3,2.07-4.14,5.11-4.07,8,.2,16,.23,24,.22s14.21,3.55,17.15,10.57c2.81,6.72,1.4,13.75-3.46,19.66-1.06,1.28-2.41,2.44-3.06,3.9s-1.31,3.73-.63,4.7c3.52,5,3.25,10.3,2,15.81-.26,1.13-.58,2.26-.77,3.41C448,489,448.08,487.47,439.36,487.64Z" transform="translate(-138.42 -288.59)"/><path class="a56c4429-cceb-4e5f-9948-f4917babee8e" d="M335.28,288.61c1.16,0,2.33,0,3.49,0,9.25.22,9.26.23,7.55,9.15-3.06,16-6.07,32-9.21,47.93-2.15,10.9-4.51,21.76-6.74,32.64-.65,3.17-2.17,5-5.74,4.89-4.82-.15-9.65,0-14.48.06-3.39,0-5-1.36-4.28-4.91q4.39-22.71,8.73-45.43c2.24-11.9,4.35-23.83,6.57-35.73,1.57-8.41,1.61-8.41,10.11-8.61C332.61,288.57,334,288.6,335.28,288.61Z" transform="translate(-138.42 -288.59)"/><path class="a56c4429-cceb-4e5f-9948-f4917babee8e" d="M269.86,383.23h-4c-8.07,0-8.52-.47-7-8.61,3.11-16.62,6.34-33.22,9.53-49.82,2.09-10.9,4.1-21.81,6.41-32.66.28-1.3,2.18-3.14,3.4-3.2,6.13-.3,12.29-.11,18.44-.05,3.36,0,3.13,2.36,2.71,4.58-1.7,9.13-3.46,18.24-5.22,27.36q-4.31,22.23-8.6,44.44c-.85,4.38-1.54,8.79-2.31,13.19-.53,3-2.14,4.77-5.4,4.69-2.66-.07-5.32,0-8,0Z" transform="translate(-138.42 -288.59)"/><path class="aeb23a49-860f-4de2-951c-fcabc747dca9" d="M303.28,465.7c2.44-4.32,5.27-8.06,6.8-12.27,2.94-8.06,5.45-16.31,7.58-24.63,2-7.86,1.7-7.94,9.81-8.06,10.08-.15,10-.16,8,9.52a128,128,0,0,1-24.51,53.06c-2.77,3.53-5.71,4.39-9.77,4.37-12.27-.08-11.92-.09-15.65-12-5.09-16.23-3.27-32.55-1.56-48.91.44-4.18,2.59-7,7.63-6.16a39.61,39.61,0,0,0,7.47.09c3.74-.09,4,1.24,3.4,4.92-2.17,12.64-3.08,25.42-.6,38.18C301.92,464.25,302.41,464.59,303.28,465.7Z" transform="translate(-138.42 -288.59)"/><path class="aeb23a49-860f-4de2-951c-fcabc747dca9" d="M254.38,316.35c-.76,4.88-1.16,9-2.2,13-.25.95-2.56,1.81-4,1.93-4.63.38-9.3.29-13.94.59-3.49.23-5.5,2.19-5.5,5.82,0,4,3,4.4,5.85,4.6,3.48.25,7,0,10.47.15s5,1.68,3.52,5.2A10.23,10.23,0,0,0,248,349c-.67,2.67-.48,6.56-2.17,7.71-2.1,1.43-5.74.61-8.72.76-2.65.13-5.32.07-7.94.42-3.48.47-4.51,3-4.42,6.15.1,3.36,2.47,4,5.19,4,3.33.05,6.66.2,10,.08,3.12-.1,4.21,1.26,3.77,4.24-.24,1.64-.23,3.32-.43,5-.54,4.36-2.41,6.87-7.44,6.52-6-.4-12-.1-18-.22-6.54-.12-12-3.23-14.51-8.85a15.49,15.49,0,0,1,2.12-16.48,13.15,13.15,0,0,1,1-1.14c4.33-4.32,5.38-8.5,3.57-15.14-3.72-13.64,9.54-25.08,20-25.56C238,316.06,245.89,316.35,254.38,316.35Z" transform="translate(-138.42 -288.59)"/><path class="aeb23a49-860f-4de2-951c-fcabc747dca9" d="M244.14,420.71c-1.53,8-3,15.26-4.29,22.51-1.37,7.49-2.72,15-3.92,22.51-.48,3,.91,5.3,3.91,6,3.43.85,4,3,3.36,6a34.67,34.67,0,0,1-2,7.15,5.4,5.4,0,0,1-3.62,2.58c-13.24,1.79-21.32-5.66-19.67-19.05,1.51-12.3,4.24-24.46,6.45-36.68.26-1.47,1-2.95.88-4.38-.42-5.53,2.11-7.32,7.38-6.73C236,421,239.53,420.71,244.14,420.71Z" transform="translate(-138.42 -288.59)"/><path class="aeb23a49-860f-4de2-951c-fcabc747dca9" d="M257.58,443.3l-7.4,39.62a4,4,0,0,0,3.92,4.72H262a4,4,0,0,0,3.92-3.26l7.37-39.62a4,4,0,0,0-3.92-4.72H261.5A4,4,0,0,0,257.58,443.3Z" transform="translate(-138.42 -288.59)"/><circle class="aeb23a49-860f-4de2-951c-fcabc747dca9" cx="129.94" cy="140.56" r="8.51"/></svg>