<svg xmlns="http://www.w3.org/2000/svg" viewBox="0 0 668.39 587.69"><defs><style>.e7cf4c0f-d4d8-43ed-9e06-820031d576ac{fill:none;stroke:#898a89;stroke-width:1.5px;}.a9dbe03d-c9bb-4885-a7ea-53be58f51e70,.e7cf4c0f-d4d8-43ed-9e06-820031d576ac{stroke-miterlimit:10;}.a9dbe03d-c9bb-4885-a7ea-53be58f51e70{fill:#ddd;stroke:#040000;stroke-width:0.5px;}</style></defs><g id="e9738221-3893-4d2a-9f2b-40bb36530164" data-name="灰色地帶"><path class="e7cf4c0f-d4d8-43ed-9e06-820031d576ac" d="M503.71,263l-1.37,3.56L497,268.28l-13.25,10.46s2.88,7.82-.71,14.68a13.89,13.89,0,0,1-.85,1.41H466.85V302H453.72L452.3,293a49.64,49.64,0,0,1,4.63-3.43c1.54-1,3-1.67,3.71-1.33,0,0-1.09-7.83,10.52-9.71a107.49,107.49,0,0,1,1.74-11.81c1.21-5.83,3.15-12.32,6.16-15.65l.28.17.63.36c.43.25.93.51,1.49.79.28.14.57.29.88.43a121.5,121.5,0,0,0,11.36,4.62l2.41.86,1,.36,3.34,1.13,1.6.53A6,6,0,0,0,503.71,263Z" transform="translate(-108.25 -5.83)"/><path class="e7cf4c0f-d4d8-43ed-9e06-820031d576ac" d="M713.74,592.79s2.94-7.41,9.83-1.53,5-7.28,5-7.28,4.85,4.59,4.85-3.45-8.55,8.17-1.4-14c0,0,6.64-6.13-1-9.19l6.13-.39s-1-5.1,3.06-6.76-1-2,2.17-5.49-2.3-7.53,3.32-2,5.49,8,8-2.43c0,0,2-1.79,4.85,1s2.43-4.08.13-5.23,3.19-3.7-6.64-10c0,0-1.27-2.55,5-5.36a8.26,8.26,0,0,0-6-8.25c1.62.46,15.11,4.16,1.89-6.18l-5.18-.05c-5.67,8.55-20,16.65-20,16.65s-1.53,9.45-34.47,0-60.26-36.26-60.26-36.26V463.31l-3.06-.05-5.18-5.85-7.08,5.85L596.28,462l0,0,2.72,5.37-20.58,19.14H566.13l-7.34-11.29L541.8,489l-22.73,1.44v4.77s6.25,6.47,6.25,7.23-1,6.13-1,6.13L508.14,518l-20.86-3.58-1.62-9.1-10.21,8.17c-1.52,13.45-8.94,24.23-12.62,28.85l10.06.42,8.36,15-4.16,17.83-.28.22-20.13,1.36-12,5.44S424.1,576.79,415.56,569a8,8,0,0,0-1.13-.85l15.67-2.22,3.35,2.39,4.62-.34,6.57-23.18v-6.44L433.45,537l-1.92,9.87h-16l-29-3.74c-15.66,2.38-17-3.75-17-3.75l-12.51-12.81c-9.1.13-13.37-5.57-13.37-5.57-12.25-1.36-12.25-25.79-12.25-25.79-1.86-1.52-2.59-4.07-2.84-6.41a30.91,30.91,0,0,1-2.45,2C311.48,501.51,317,473.3,317,473.3c-9.7-9.7-.51-10.73-.51-10.73-1.88-1.88-2-3.68-1.42-5.22l-22.41-7v-6.13S281,432,284.53,421.08c-5.63,1.22-9.89-.16-8.91-7.78,0,0-11-6.13-10.47-11.24,0,0-9.75,2.49-12.32-7.3L240,403.85c-15.52,11.58-17.85,3.75-17.85,3.75H199.7l-1.7,6.12L175.87,425l-25.19-2s-15.62-19.65,5.46-41.63a13.86,13.86,0,0,1-1.71-.24c-4.16-11.3-5.34-25.76-5.66-33.91a1.11,1.11,0,0,0-.19,1.27c-9.16-12.1-14.57-24.21-9.13-23.86S151,316.87,151,316.87c-7.49-16.51-2-23.83-2-23.83,19.91-20.36,43-3.45,48,.67,16.76-4.77,39.8-5.69,39.8-5.69s44.25-18,48-19.66c2.49-1.13,9.38.95,13.69,2.46.2-1.34.22-4.33-.41-10.92-1.28-13.24,8.93-14.35,8.93-14.35H316l13.7-3.91,4.86-1.39A3.07,3.07,0,0,0,335,240c4.65-2.67,9.78-15.37,9.78-15.37,10.21-.51,22.47-4.34,22.47-4.34-.17-6.86,6-10,10-11.33L380.81,193l3-3.19c-12.44,10.17-47.59-7.26-47.59-7.26S324,157.72,365.49,150.23c40.08-7.23,31.34,24.23,30.68,26.44l18.28-19.47c-12.5-4,2.61-27.82,2.61-27.82s-22.46-16.08,13-37.53c0,0,15.24-5.31,30.56,10.64A17.41,17.41,0,0,1,463.28,99C492.89,55.34,511,60.45,511,60.45L516.84,63c2.87-6.56,12-9.23,12-9.23H553.4c3.46,2.31,6.57,8.42,8.92,14.44.16-.58.28-.91.28-.91-8.17-12,3.57-13.53,3.57-13.53s21.19,1.28,38.55,1.79a28.39,28.39,0,0,1,5.21.58c6,1.3,7.54,4.45,7.73,7.08h2l6.47-7.15,3.23-15.49s13.79-9,7-12.6c0,0,20.76-29.28,31-19.4S680.72,25.3,680.72,25.3l-6.46,23.49s-2.9-3.75-5.79,7.32S661,53,661.83,67s1.53-13.45,3.23,14.13c0,0,5.41,2,8-.18C671.57,83,668.69,88,671,93.79l-4.93,4s-8.86,1.36-8.35,9.53c0,0-3.91,4.26,3.75,2.72s.85-3.23,10.89-5.78c0,0-.34-14,4.77-7.15,0,0,6.64.85,6.13-6.81s10-17.87,13.36-15.32c0,0-1-11.08,16.34-14.73,0,0,7.66,1.46,0-6.46l12-1.53s-2.81-2.81,13.79-3.07c0,0,8.93-7.15,6.38-11.49s22,10.47,22,10.47l8.63,14.11.15-2M186.26,521.55c-1.28-9.95,2.8-31.15,2.8-31.15h14.05c25.78,16.6,73.53,15.32,73.53,15.32.76,12.51-21.45,34.73-21.45,34.73-3.06,12-17.1,12.51-17.1,12.51L221,562.66l-24.26-1.28-9-8.93v-8.94C178.64,524.11,186.26,521.55,186.26,521.55Zm-24.77-45.19,13.28,17.36c4.85,19.92-16.6,48.51-16.6,48.51-10.47,8.17-28.08-6.12-28.08-6.12H116.81l1.28-14.05c5.36-9.19-1-12.76-1-12.76-.76-8.43-7.91-9.45-7.91-9.45l1.28-6.13,22.46-17.36Z" transform="translate(-108.25 -5.83)"/><path class="e7cf4c0f-d4d8-43ed-9e06-820031d576ac" d="M524.81,160.62,518,177.13s-8.34,1.36-9.7,22.3H495.19l-9.53,8.66V223.6l8.15,7.65a16.33,16.33,0,0,1-8.75,9l-13-11.72h-.85a2.39,2.39,0,0,1,2.21-2.89l3.08-13.11c4.56-2.27,1.52-6,.38-7.12a15.26,15.26,0,0,0,8.8-12.39c8.58-8.75,3.45-15.9-2-20.19h0a7.35,7.35,0,0,0-.4-1.74V148.47L526.34,157l0,0C526.63,158.77,526.3,160.25,524.81,160.62Z" transform="translate(-108.25 -5.83)"/><path class="e7cf4c0f-d4d8-43ed-9e06-820031d576ac" d="M689.23,381.89a77.19,77.19,0,0,1-19.72,1.73,27.89,27.89,0,0,0-13.64-25.05H638l-8.94,6.13a3.6,3.6,0,0,1,0,.53l-12.11-8v-3.47s7-5.29,6.74-13.13l2.88-3.38V318.74l-4.37-8.31-1.9-3.62s12.35-5.78,13.12-6.25l0,0s4.51,14.19,10,17.22,21.44,18.7,21.44,18.7,1.37-4.09,13.45,17.36c0,0-2,11.91,15.15,11.74C693.49,365.55,702.51,367.26,689.23,381.89Z" transform="translate(-108.25 -5.83)"/></g><g id="f058a1a5-237f-43e5-8e2c-5a49a1dd39bc" data-name="羅"><path class="a9dbe03d-c9bb-4885-a7ea-53be58f51e70" d="M481.25,557.72l-4.16,17.83-.28.22-20.13,1.36-12,5.44S424.1,576.79,415.56,569a8,8,0,0,0-1.13-.85l15.67-2.22,3.35,2.39,4.62-.34,6.57-23.18h16.11s.82-.86,2.08-2.44l10.06.42Z" transform="translate(-108.25 -5.83)"/></g><g id="aa118359-63a9-4bdb-83fe-9ee463defe5f" data-name="夔"><path class="a9dbe03d-c9bb-4885-a7ea-53be58f51e70" d="M366,478.4l-17.56,9.71-18.53-.51c-.44.42-.86.81-1.27,1.16a30.91,30.91,0,0,1-2.45,2C311.48,501.51,317,473.3,317,473.3c-9.7-9.7-.51-10.73-.51-10.73-1.88-1.88-2-3.68-1.42-5.22l.4.12,14.43-3.58a3.52,3.52,0,0,1-.29-1h12.84C362.78,461,366,478.4,366,478.4Z" transform="translate(-108.25 -5.83)"/></g><g id="a82c25ad-9992-4e0c-9fcc-86304c262de1" data-name="庸"><path class="a9dbe03d-c9bb-4885-a7ea-53be58f51e70" d="M337.91,425l-3,17.19s-5.9,6.51-5.34,10.72a3.52,3.52,0,0,0,.29,1l-14.43,3.58-.4-.12-22.41-7v-6.13S281,432,284.53,421.08c9.08-1.94,21.73-10.59,21.73-10.59h26.29l3.28-1.88a8.9,8.9,0,0,1,3.83,4.09C340.88,415.45,340.73,419.37,337.91,425Z" transform="translate(-108.25 -5.83)"/></g><g id="a83c16cf-236b-4894-9b2e-32e3e8a5ad9c" data-name="巴"><path class="a9dbe03d-c9bb-4885-a7ea-53be58f51e70" d="M255.19,540.45c-3.06,12-17.1,12.51-17.1,12.51L221,562.66l-24.26-1.28-9-8.93v-8.94c-9-19.4-1.42-22-1.42-22-1.28-9.95,2.8-31.15,2.8-31.15h14.05c25.78,16.6,73.53,15.32,73.53,15.32C277.4,518.23,255.19,540.45,255.19,540.45Z" transform="translate(-108.25 -5.83)"/></g><g id="e17ef3c5-a675-4a4d-9407-aad20e22898a" data-name="蜀"><path class="a9dbe03d-c9bb-4885-a7ea-53be58f51e70" d="M158.17,542.23c-10.47,8.17-28.08-6.12-28.08-6.12H116.81l1.28-14.05c5.36-9.19-1-12.76-1-12.76-.76-8.43-7.91-9.45-7.91-9.45l1.28-6.13,22.46-17.36h28.6l13.28,17.36C179.62,513.64,158.17,542.23,158.17,542.23Z" transform="translate(-108.25 -5.83)"/></g><g id="adc106e9-53e3-4ec0-9cad-e85a6e0b025f" data-name="桐"><polygon class="a9dbe03d-c9bb-4885-a7ea-53be58f51e70" points="490.77 461.6 470.19 480.74 457.88 480.74 450.54 469.45 449.91 468.49 449.91 460.57 452.73 451.43 453.07 450.31 462.77 447.04 476.3 447.81 488.02 456.21 488.03 456.21 488.05 456.23 490.77 461.6"/></g><g id="afb53531-2b68-4dc2-aba8-1724c20e7d77" data-name="英"><polygon class="a9dbe03d-c9bb-4885-a7ea-53be58f51e70" points="451.09 438.87 450.89 439.74 449.18 447.04 448.83 447.21 448.82 447.21 439.28 451.64 431.49 448.42 428.3 447.1 425.27 438.87 426.08 427.05 427.54 428.15 429.14 426.72 433.55 422.79 438.26 425.92 448.89 428.09 451.09 438.87"/></g><g id="e4f8b79d-3e9c-4ebc-ae06-ee8c50a96996" data-name="弦"><polygon class="a9dbe03d-c9bb-4885-a7ea-53be58f51e70" points="428.3 447.1 428.15 447.04 419.11 454.7 408.13 454.7 400.98 447.04 399.89 431.19 410.21 422.28 414.01 422.28 421.41 423.55 426.08 427.05 425.27 438.87 428.3 447.1"/></g><g id="ea77e0c0-78f5-4716-a144-8ad46a1df2cc" data-name="隨"><path class="a9dbe03d-c9bb-4885-a7ea-53be58f51e70" d="M479.9,435l-6.07,17.89-1.21.18-26,3.84-3.95.58-9.25-4.6V443l3.38-5.9c1.83.13,4.77-.79,9.08-5.22A70.48,70.48,0,0,0,454,421.47L454,421a41.82,41.82,0,0,1,6.14,5.39,11,11,0,0,1,2.4,3.76L473.83,435l4.35-3.06Z" transform="translate(-108.25 -5.83)"/></g><g id="a7644008-b9ac-486d-accb-89093ab3c138" data-name="楚"><path class="a9dbe03d-c9bb-4885-a7ea-53be58f51e70" d="M558,474.32l.63,1-17,13.68-22.73,1.44-.61-5.53c-24-3.06-28.44,5.53-28.44,5.53l-4.36,14.9-10.21,8.17c-1.52,13.45-8.94,24.23-12.62,28.85-1.26,1.58-2.08,2.44-2.08,2.44H444.49v-6.44L433.3,537l-1.92,9.87h-16l-29-3.74c-15.66,2.38-17-3.75-17-3.75l-12.51-12.81c-9.1.13-13.37-5.57-13.37-5.57-12.25-1.36-12.25-25.79-12.25-25.79-1.86-1.52-2.59-4.07-2.84-6.41.41-.35.83-.74,1.27-1.16l18.53.51,17.56-9.71s-3.19-17.36-23.54-25.53H329.44c-.56-4.21,5.34-10.72,5.34-10.72l3-17.19c2.82-5.59,3-9.51,1.75-12.26l14.6-.42,2.81,2.55s-1.48,19.66,11,20.15c.24,0,.49,0,.74,0,0,0,3,16.53,22.16,11.13l.56-.15s21.28,9.19,22.64-10.72v-5.37s.09,10.73,20.26,6.13a3.31,3.31,0,0,0,2.4,1.12L433.3,443v9.83l9.25,4.6,3.95-.58.88,7.9,9.15,11.57,13.54-6.64,5.23-6.41-2.83-10.26,1.21-.18L479.75,435,478,431.92l6.41-4.52,13.79,7.6,9.58,2.17L508,437l1.09,15.85,7.15,7.66h11l9-7.66.15.06,3.19,1.32,7.79,3.22,9.54-4.43h0l3.9,4.22L558,466.4Z" transform="translate(-108.25 -5.83)"/></g><g id="feefc1c2-dc33-4869-98dd-ea6fd81437e0" data-name="軫"><polygon class="a9dbe03d-c9bb-4885-a7ea-53be58f51e70" points="367.2 457.48 361.97 463.89 348.43 470.53 339.28 458.96 338.4 451.06 364.37 447.22 367.2 457.48"/></g><g id="e21e89c4-a041-4353-a2d2-c409b04bf753" data-name="鄂"><path class="a9dbe03d-c9bb-4885-a7ea-53be58f51e70" d="M525.32,502.4c0,.77-1,6.13-1,6.13L508.14,518l-20.86-3.58-1.62-9.1L490,490.4s4.39-8.59,28.44-5.53l.61,5.53v4.77S525.32,501.64,525.32,502.4Z" transform="translate(-108.25 -5.83)"/></g><g id="a914278b-93c1-4dc3-a7e8-309e02249eda" data-name="蔣"><path class="a9dbe03d-c9bb-4885-a7ea-53be58f51e70" d="M545.22,422.86l-3.42,5.76-4.41,3.93-1.6,1.43-1.46-1.1-4.67-3.5-7.4-1.27-1.79-8.35-2-4.93,1.47-8.61h.54l10.21-9.78h5.25a3.5,3.5,0,0,0,.13,1.64,3.89,3.89,0,0,0,1,1.59,6.92,6.92,0,0,0,2.56,1.52l.12-.09V420.7a34.66,34.66,0,0,0,2.06,2.81Z" transform="translate(-108.25 -5.83)"/></g><g id="fea7c585-aba1-4266-8a8b-8289315f630e" data-name="六"><path class="a9dbe03d-c9bb-4885-a7ea-53be58f51e70" d="M574.93,413.17h0l-4.16,11.61L557.43,434l-.29-.06-10.63-2.17-4.71-3.13,3.42-5.76,3.08-.59,7.66-9.74V398h18.71c0,3.46,0,7.22,0,9.68,0,1.19,0,2.08,0,2.47C574.75,411.35,574.84,412.34,574.93,413.17Z" transform="translate(-108.25 -5.83)"/></g><g id="abd5e1cf-edda-4962-85fc-ecdc9b3958c5" data-name="盧"><path class="a9dbe03d-c9bb-4885-a7ea-53be58f51e70" d="M591.45,410.19s1,7.45-5,6.17l-.86.12h0l-8.72,1.16s-1.34.82-2-4.46h0c-.09-.83-.18-1.82-.23-3,0-.39,0-1.28,0-2.47,0-2.46,0-6.22,0-9.68h1l5.56-5.56.14.14,4.78-.24,11.86-.61a11,11,0,0,0,2.31,1.69C599.26,397.2,596.32,406.7,591.45,410.19Z" transform="translate(-108.25 -5.83)"/></g><g id="aceac434-fac1-4b59-8e37-02c30a1f2bd4" data-name="巢"><path class="a9dbe03d-c9bb-4885-a7ea-53be58f51e70" d="M630.34,427.34s-4.08,12.26-3.74,12.77c.17.25-1.61-.18-3.45-.68s-3.92-1.11-3.92-1.11l-.47-.37-6.12-4.82-4.26.85H603l-16.56-14.22-.81-3.28.86-.12c6,1.28,5-6.17,5-6.17,4.87-3.49,7.81-13,8.82-16.73,2.74,1.53,7.57,2.76,12.37-3.06l6.33-1.16.26-.05,0,0c13.38,5.06,12.68,8.56,12.6,8.83l2.06-2.23,2,8.66,1.75,7.72Z" transform="translate(-108.25 -5.83)"/></g><g id="be4dc796-0737-4d89-b5f8-d4c26877c914" data-name="吳"><path class="a9dbe03d-c9bb-4885-a7ea-53be58f51e70" d="M736.21,440.18l-3.83,6.05-8.93,6.64-1,3.27s-17.54,5-26.2,10.35h0c-1.89.21-4,.52-6.39,1-4.36-1.34-15.25-2.94-41.72-3.78h0c-4.53-.15-9.53-.27-15-.36l-3.06-.05-5.18-5.85,1.78-1.47a65,65,0,0,0-1.64-9h0c-.62-2.66-1.29-5.37-1.81-7.47,1.84.5,3.62.93,3.45.68-.34-.51,3.74-12.77,3.74-12.77l7.32-15.15-1.75-7.72-2-8.66,1.85-2c2.31.09,4.4.07,6.28,0l.73,0,.75-.06.74-.07q.68-.06,1.32-.15l1.38-.22.57-.1c.63-.12,1.23-.25,1.79-.4l.23-.07h.1l7.05-.73s5.92-9.52,11.68-4.66c0,0,.4,11.77,12.65,12.77s5.62-5.5,16.85-2S734.94,429,736.21,440.18Z" transform="translate(-108.25 -5.83)"/></g><g id="fbd30373-b5a6-4991-9625-1641f311d81a" data-name="舒"><path class="a9dbe03d-c9bb-4885-a7ea-53be58f51e70" d="M626.6,455.94l-1.78,1.47-7.08,5.85L596.28,462h0l-11.72-8.4L571,452.87l-9.7,3.27-.34,1.12-3.9-4.22.35-.17,1.71-7.3.2-.87-2.2-10.78.29.06,13.34-9.19,4.16-11.61c.62,5.28,2,4.46,2,4.46l8.72-1.16h0l.81,3.28L603,434h5.39l4.26-.85,6.12,4.82.47.37s2,.59,3.92,1.11c.52,2.1,1.19,4.81,1.81,7.47h0A65,65,0,0,1,626.6,455.94Z" transform="translate(-108.25 -5.83)"/></g><g id="ab8dd7d7-3a33-4764-9fd5-74f24c7afc0c" data-name="越"><path class="a9dbe03d-c9bb-4885-a7ea-53be58f51e70" d="M764.55,499.09a3.57,3.57,0,0,1-3.06,2.29c-1.83-.05-3.82-2.48-3.83-6.12L756,504.07l-.16-.39c-1.27-3.06-5.87-3.06-5.87-3.06a12.63,12.63,0,0,1-2.24,5.56c-5.67,8.55-20,16.65-20,16.65s-1.53,9.45-34.47,0-60.26-36.26-60.26-36.26V463.31c5.5.09,10.5.21,15,.36h0c26.47.84,37.36,2.44,41.72,3.78,2.38-.44,4.5-.75,6.39-1h0c17.44-1.83,15,5.79,15,5.79,11.4-4.84,19.5-7,25.26-7.57,13.08-1.39,14.06,5,14.06,5L764,471.44c-3.85.28-11.68,14.11-11.68,14.11-18.64,6.64-4.09,6.39-4.09,6.39.26-2.56,7.66-2.56,7.66-2.56.77-8.42,5.87-5.1,5.87-5.1a21.68,21.68,0,0,0,1.21,8.46C764,495.51,765.3,497.2,764.55,499.09Z" transform="translate(-108.25 -5.83)"/></g><g id="bdc76270-3066-4b76-84b8-94d8c01dca9f" data-name="江"><path class="a9dbe03d-c9bb-4885-a7ea-53be58f51e70" d="M481.25,393.78l-1.76,9-1,5-3.07,4.39-.43-.85s-8.26,6.36-15.06,5.1h-6.63l-.4-2.83-.31-2.23-1.93-13.89c4.59-.62,5.44-3.35,5.44-3.35,5.36-.85,10.94-6.55,10.94-6.55l-.2-.25h5.34c.49-.46,1-.91,1.39-1.36Z" transform="translate(-108.25 -5.83)"/></g><g id="e1b5ea95-4900-46b3-b734-ef99385fa505" data-name="唐"><path class="a9dbe03d-c9bb-4885-a7ea-53be58f51e70" d="M454,421.47a70.48,70.48,0,0,1-8.13,10.45c-4.31,4.43-7.25,5.35-9.08,5.22a3.31,3.31,0,0,1-2.4-1.12c-20.17,4.6-20.26-6.13-20.26-6.13l-1.31-20.2,10.79-7.27,21-4.38s-.09-.35-.23-1a19,19,0,0,0,6.28.32l1.93,13.89.31,2.23.4,2.83L454,421Z" transform="translate(-108.25 -5.83)"/></g><g id="f375535b-971b-45a2-9682-6e802774a51b" data-name="鄾"><path class="a9dbe03d-c9bb-4885-a7ea-53be58f51e70" d="M414.17,429.89v5.37C412.81,455.17,391.53,446,391.53,446l-.56.15a41.44,41.44,0,0,1,.34-8.24,69,69,0,0,1,1.62-7.94l.44.2Z" transform="translate(-108.25 -5.83)"/></g><g id="f85d7925-110f-489b-a96c-95f65d13835f" data-name="穀"><path class="a9dbe03d-c9bb-4885-a7ea-53be58f51e70" d="M382.15,416l-1.6,7.61h0a28.87,28.87,0,0,0-8.1,5.75,30,30,0,0,0-4.38,5.62c-12.48-.49-11-20.15-11-20.15l6-6.16,9.67,4,9.12,3.73Z" transform="translate(-108.25 -5.83)"/></g><g id="e8ecfa01-5da4-4a65-a3cb-a0ff5bc147ef" data-name="谷"><path class="a9dbe03d-c9bb-4885-a7ea-53be58f51e70" d="M391.31,437.89a41.44,41.44,0,0,0-.34,8.24c-19.16,5.4-22.16-11.13-22.16-11.13-.25,0-.5,0-.74,0a30,30,0,0,1,4.38-5.62,28.87,28.87,0,0,1,8.1-5.75l-.25,1.18c1.12,0,10.48,4.19,12.63,5.16A69,69,0,0,0,391.31,437.89Z" transform="translate(-108.25 -5.83)"/></g><g id="af4c6a8f-2141-4a52-bc92-35d762719638" data-name="賴"><path class="a9dbe03d-c9bb-4885-a7ea-53be58f51e70" d="M484.59,427.4l-6.41,4.52L473.83,435l-11.32-4.83a11,11,0,0,0-2.4-3.76A41.82,41.82,0,0,0,454,421l-.64-4.64H460c6.8,1.26,15.06-5.1,15.06-5.1l.43.85.89,1.79.47.93h5.87L484,427.09Z" transform="translate(-108.25 -5.83)"/></g><g id="b4fdf185-aa36-4d32-beb4-3d5349d85565" data-name="黃"><polygon class="a9dbe03d-c9bb-4885-a7ea-53be58f51e70" points="414.01 422.28 410.21 422.28 399.89 431.19 399.71 431.34 390.13 429.17 376.34 421.57 375.78 421.26 374.43 409 386.94 409 394.35 404.36 396.35 400.21 411.68 400.39 410.21 409 412.22 413.93 414.01 422.28"/></g><g id="b40d3880-4b1e-4509-b1ab-df9140267751" data-name="申"><path class="a9dbe03d-c9bb-4885-a7ea-53be58f51e70" d="M423.65,402.42l-10.79,7.27c-10.23-5.57-16.32-6.86-19.73-6.89l.2-.23c1-11.5-14.42-16.43-21.76-18.12-1.1-5.87-9.14-15.32-9.14-15.32H357l-.82-6.3h11.18l.85-2h8.08c1.58,3,4.67,6.26,10.65,7.06A185.94,185.94,0,0,0,412,369s1.43.46,3.81,1c-.66,3.32-.5,11.74,4.58,33.07Z" transform="translate(-108.25 -5.83)"/></g><g id="adfa3e5f-b2d2-42dc-a312-605a3195f47a" data-name="曾"><path class="a9dbe03d-c9bb-4885-a7ea-53be58f51e70" d="M444.64,398l-21,4.38-3.23.67c-5.08-21.33-5.24-29.75-4.58-33.07,5.85,1.36,17.44,3.29,27.78.38l.27,0a37.62,37.62,0,0,1,.26,4.42,15,15,0,0,1-.79,5.26c-1.28,3.2-.45,9.43.35,13.64.26,1.4.52,2.58.7,3.34C444.55,397.69,444.64,398,444.64,398Z" transform="translate(-108.25 -5.83)"/></g><g id="a4e9dd69-d231-42b1-a83d-bd91df56513a" data-name="道"><path class="a9dbe03d-c9bb-4885-a7ea-53be58f51e70" d="M467.07,387.51s-5.58,5.7-10.94,6.55c0,0-.85,2.73-5.44,3.35a19,19,0,0,1-6.28-.32c-.18-.76-.44-1.94-.7-3.34-.8-4.21-1.63-10.44-.35-13.64a15,15,0,0,0,.79-5.26,37.62,37.62,0,0,0-.26-4.42c1.06.08,4.88-.14,5.24-7.29a49.14,49.14,0,0,0,3.55,3.41c.72.62,1.43,1.19,2.14,1.7a12,12,0,0,0,4.12,2c.39,3.75,2.13,9.59,7.93,17Z" transform="translate(-108.25 -5.83)"/></g><g id="e47869fd-aced-4b2f-b134-0fac45ba1360" data-name="息"><polygon class="a9dbe03d-c9bb-4885-a7ea-53be58f51e70" points="396.35 400.21 394.35 404.36 386.94 409 368.56 409 368.09 408.07 367.2 406.28 370.27 401.89 371.24 396.91 373 387.95 373.92 388.9 393.58 388.9 391.28 392.21 395.46 400.2 396.35 400.21"/></g><g id="b4416a1d-d2ed-4fd3-9593-1373801e119d" data-name="絞"><path class="a9dbe03d-c9bb-4885-a7ea-53be58f51e70" d="M371.62,386.49l-4.09,7.57-1.44,8.27-.68,3.9L363,408.67l-6,6.16-2.81-2.55-14.6.42a8.9,8.9,0,0,0-3.83-4.09l6.3-3.61L342,393.64l4.72-6.77v-5.61l10.35-11.62-.07-.51h5.43s8,9.45,9.14,15.32A5.66,5.66,0,0,1,371.62,386.49Z" transform="translate(-108.25 -5.83)"/></g><g id="ed12e9a7-78d6-4741-935d-2bbfad3a27c5" data-name="鄀"><path class="a9dbe03d-c9bb-4885-a7ea-53be58f51e70" d="M393.33,402.57l-.2.23-11,13.18h0l-.32.37-9.12-3.73-9.67-4,2.37-2.44.68-3.9,1.44-8.27,4.09-7.57a5.66,5.66,0,0,0-.05-2C378.91,386.14,394.31,391.07,393.33,402.57Z" transform="translate(-108.25 -5.83)"/></g><g id="a2e9d2db-619d-4c8e-b4a3-60b3f3574521" data-name="鄧"><path class="a9dbe03d-c9bb-4885-a7ea-53be58f51e70" d="M414.17,429.89l-20.8.26-.44-.2c-2.15-1-11.51-5.16-12.63-5.16l.25-1.18h0l1.6-7.61h0l11-13.18c3.41,0,9.5,1.32,19.73,6.89Z" transform="translate(-108.25 -5.83)"/></g><g id="be8f6789-6b46-4f9c-a451-3d0e612a491c" data-name="許"><path class="a9dbe03d-c9bb-4885-a7ea-53be58f51e70" d="M473.83,337c-.46.92-.91,1.79-1.38,2.62A45.37,45.37,0,0,1,470,343.5a30.51,30.51,0,0,1-2.85,3.5c-6.85,7.2-13.87,6.11-19.46,2.82a33.88,33.88,0,0,1-7.57-6.3,20.76,20.76,0,0,0,3.62-7.58s.59,0,1.6-.1a70,70,0,0,0,17.35-3.4,33.35,33.35,0,0,0,4.38-1.93,20.87,20.87,0,0,0,2.92-1.88l.15-.13,2.77,6.34Z" transform="translate(-108.25 -5.83)"/></g><g id="ef462066-a91a-48b3-812f-bad4489174a4" data-name="項"><path class="a9dbe03d-c9bb-4885-a7ea-53be58f51e70" d="M527.36,372.91c0,.09-.32.2-.89.33-4.06.94-20.61,2.76-20.61,2.76a12,12,0,0,0-6.33-9.17v-8l.53.1s7.74-6.46,14.54-4.93c6.18,1.39,7.78,5.87,8,6.68l0,.07,0,.06s1.46,3.55,2.76,6.81A53.08,53.08,0,0,1,527.36,372.91Z" transform="translate(-108.25 -5.83)"/></g><g id="f2fe7ace-181d-4b95-a822-1442358d348b" data-name="蔡"><path class="a9dbe03d-c9bb-4885-a7ea-53be58f51e70" d="M507.19,391.92l-5.36,2.81H482.17l-.92-1-7.65-7.88c13.21-13.48,2.46-21-3.38-23.82l3.94-3.19,1.12,1.9,12.77-5.56a2.33,2.33,0,0,0,1,.79,67.13,67.13,0,0,0,10.47,2.79v8a12,12,0,0,1,6.33,9.17l1.1,13.11Z" transform="translate(-108.25 -5.83)"/></g><g id="b12f1b83-180c-431d-b05c-8842654f334f" data-name="番"><path class="a9dbe03d-c9bb-4885-a7ea-53be58f51e70" d="M538.6,391.92a11.5,11.5,0,0,0-2.24,3.13,5.41,5.41,0,0,0-.43,1.4h-5.25l-10.21,9.78h-.54L504.6,406h-.89l-4.18-8,2.3-3.31,5.36-2.81-.23-2.81L505.86,376s16.55-1.82,20.61-2.76l11.1,10.44Z" transform="translate(-108.25 -5.83)"/></g><g id="a7122d3b-fe05-47bb-861c-306774257d43" data-name="蓼"><path class="a9dbe03d-c9bb-4885-a7ea-53be58f51e70" d="M556,398v14.49l-7.66,9.74-3.08.59-3.42.65a34.66,34.66,0,0,1-2.06-2.81V401.11l4-3.07Z" transform="translate(-108.25 -5.83)"/></g><g id="a1fda782-70cd-4336-899c-6f9edf4f609f" data-name="應"><path class="a9dbe03d-c9bb-4885-a7ea-53be58f51e70" d="M449.13,363.14c-.36,7.15-4.18,7.37-5.24,7.29l-.27,0c-10.34,2.91-21.93,1-27.78-.38-2.38-.55-3.81-1-3.81-1L410,360.82l-1.55-6.14h0l5.5-10.76a46.32,46.32,0,0,0,7.84,3.32c6.24,1.93,13.35,2.23,18.09-3.38l1,9.16A101.12,101.12,0,0,0,449.13,363.14Z" transform="translate(-108.25 -5.83)"/></g><g id="f4541de3-d335-452c-ae5d-d3c1368b6ee1" data-name="柏"><path class="a9dbe03d-c9bb-4885-a7ea-53be58f51e70" d="M473.6,385.9c-.43.45-.9.9-1.39,1.36h-5.34c-5.8-7.38-7.54-13.22-7.93-17a5.21,5.21,0,0,0,1,.11l10.26-8.32C476.06,364.89,486.81,372.42,473.6,385.9Z" transform="translate(-108.25 -5.83)"/></g><g id="ef172fbf-9ab8-4fe3-a8ba-489390eed73b" data-name="钟吾"><path class="a9dbe03d-c9bb-4885-a7ea-53be58f51e70" d="M626.6,318.74V337.3l-2.88,3.38-.53.62a10.36,10.36,0,0,0-1.31-.69l-.54-.23a37.55,37.55,0,0,0-6.69-1.95l-.81-.16c-.55-.11-1.14-.22-1.77-.32s-1.21-.19-1.86-.27-1.62-.22-2.5-.31l-.69-.07a36.38,36.38,0,0,1-12.93-3.86,33.43,33.43,0,0,1-7-4.65c-2-.42-4.24-2.11-6.31-4.25h0l1.2-6.47-6.64-8.15-.66-.2,5-5.54,2.29-2.54a27.41,27.41,0,0,0,4.48,3.26c11.29,6.6,24.59,3.49,30.3,1.63,1.79-.59,2.84-1,2.84-1l.71,1.34,1.9,3.62Z" transform="translate(-108.25 -5.83)"/></g><g id="ab75a44c-fbef-4c07-a42d-8e09e311f386" data-name="徐"><path class="a9dbe03d-c9bb-4885-a7ea-53be58f51e70" d="M623.72,340.68c.31,7.84-6.74,13.13-6.74,13.13v3.83l-8.32.53-7.77.49-12.34,6.89L586,363.89l-7.94-5.23-11.45-17.48c4-.62,7.89-3.66,10.26-5.89a32,32,0,0,0,2.38-2.5l1.52-8.25c2.07,2.14,4.27,3.83,6.31,4.25a33.43,33.43,0,0,0,7,4.65A36.38,36.38,0,0,0,607,337.3l.69.07c.88.09,1.71.2,2.5.31l1.86.27c.63.1,1.22.21,1.77.32l.81.16a37.55,37.55,0,0,1,6.69,1.95l.54.23a10.36,10.36,0,0,1,1.31.69Z" transform="translate(-108.25 -5.83)"/></g><g id="e8ae8ee0-4980-4f43-a1d4-f26025e5fb59" data-name="钟离"><path class="a9dbe03d-c9bb-4885-a7ea-53be58f51e70" d="M629.09,366c0,.14,0,.29,0,.46,0,.49-.1,1.07-.21,1.75,0,.15-.05.31-.08.47-.08.44-.18.91-.3,1.42q-.06.29-.15.6c-.19.71-.42,1.48-.7,2.32-.06.18-.12.36-.19.55-.41,1.18-.93,2.48-1.58,3.89-.13.29-.27.6-.42.9a72.71,72.71,0,0,1-3.85,7q-1.15,1.83-2.53,3.82l-.09.13-6.33,1.16c-4.8,5.82-9.63,4.59-12.37,3.06a11,11,0,0,1-2.31-1.69l-11.86.61-4.78.24-.14-.14-2.94-2.82-1.35-1.3q0-1.38.09-2.73c.74-9.73,5.82-17.62,9-21.74l2.52,1.66,12.34-6.89,7.77-.49,8.32-.53v-.36l12.11,8Q629.11,365.53,629.09,366Z" transform="translate(-108.25 -5.83)"/></g><g id="e202fd59-e462-4cb9-9e25-51b595d445a4" data-name="州來"><path class="a9dbe03d-c9bb-4885-a7ea-53be58f51e70" d="M578.24,389.66l2.94,2.82L575.62,398H543.7l-4,3.07-.12.09a6.92,6.92,0,0,1-2.56-1.52,3.89,3.89,0,0,1-1-1.59,3.5,3.5,0,0,1-.13-1.64,5.41,5.41,0,0,1,.43-1.4,11.5,11.5,0,0,1,2.24-3.13l-1-8.24-11.1-10.44c.57-.13.89-.24.89-.33a53.08,53.08,0,0,0-1.94-5.31c-1.3-3.26-2.76-6.81-2.76-6.81s11.74-9.72,12-19.59l15.62-4c4.25,1.83,10.82,4.28,15.23,4.12a7.48,7.48,0,0,0,1.15-.12l11.45,17.48,7.94,5.23c-3.23,4.12-8.31,12-9,21.74q-.11,1.35-.09,2.73Z" transform="translate(-108.25 -5.83)"/></g><g id="a64c4f72-4950-49de-97be-ed514e668fe4" data-name="邗"><path class="a9dbe03d-c9bb-4885-a7ea-53be58f51e70" d="M669.51,383.62a42,42,0,0,1-10.23-1.73,6.3,6.3,0,0,1,.07,1.63,2.29,2.29,0,0,1,0,.25,1.11,1.11,0,0,1,0,.17l0,.21a1.91,1.91,0,0,1-.06.33c0,.08,0,.15,0,.23s0,.12,0,.18a7.22,7.22,0,0,1-.36,1.12,6.4,6.4,0,0,1-.36.75,2.69,2.69,0,0,1-.16.29l-.07.12-.21.34c-.12.16-.23.32-.36.48s-.21.27-.33.41-.25.27-.38.41a8,8,0,0,1-.73.68c-.13.11-.26.22-.41.33l-.4.3a14.34,14.34,0,0,1-1.58,1c-.19.1-.38.2-.59.29-.4.19-.83.38-1.29.55l0,0-.67.24-.75.24h0l-.73.22h-.1l-.23.07c-.56.15-1.16.28-1.79.4l-.57.1-1.38.22q-.65.09-1.32.15l-.74.07-.75.06-.73,0c-1.88.1-4,.12-6.28,0l-1.85,2L631.88,398c.08-.27.78-3.77-12.6-8.83l0,0-.17-.08q1.38-2,2.53-3.82a72.71,72.71,0,0,0,3.85-7c.15-.3.29-.61.42-.9.65-1.41,1.17-2.71,1.58-3.89.07-.19.13-.37.19-.55.28-.84.51-1.61.7-2.32q.09-.31.15-.6c.12-.51.22-1,.3-1.42,0-.16.06-.32.08-.47.11-.68.17-1.26.21-1.75,0-.17,0-.32,0-.46q0-.45,0-.75a3.6,3.6,0,0,0,0-.53l8.94-6.13h17.87A27.89,27.89,0,0,1,669.51,383.62Z" transform="translate(-108.25 -5.83)"/></g><g id="fea36b91-15ea-4368-8393-b77aabf5ee8f" data-name="陳"><path class="a9dbe03d-c9bb-4885-a7ea-53be58f51e70" d="M534.64,341.2c-.24,9.87-12,19.59-12,19.59l0-.06,0-.07c-.24-.81-1.84-5.29-8-6.68-6.8-1.53-14.54,4.93-14.54,4.93l-.53-.1A67.13,67.13,0,0,1,489.06,356a2.33,2.33,0,0,1-1-.79c-2.44-3.25.82-13.41-4-12.49-5.37,1-9.52-2.72-9.52-2.72a5.05,5.05,0,0,1-2.06-.44c.47-.83.92-1.7,1.38-2.62l-.92-2.12-2.77-6.34a11.81,11.81,0,0,0,3.69-4.58c3.59,1.41,7.79,1.74,10.3.27,0,0,24.85,12,32,10.72l7.24,2.55,10.89,3.84Z" transform="translate(-108.25 -5.83)"/></g><g id="b56c293e-b5b6-47c4-9ea0-b7d06c031ac3" data-name="胡"><path class="a9dbe03d-c9bb-4885-a7ea-53be58f51e70" d="M476.81,356.74l-2.65,2.15-3.94,3.19L460,370.4a5.21,5.21,0,0,1-1-.11,12,12,0,0,1-4.12-2c-.71-.51-1.42-1.08-2.14-1.7a49.14,49.14,0,0,1-3.55-3.41A101.12,101.12,0,0,1,440.81,353l-1-9.16.27-.33a33.88,33.88,0,0,0,7.57,6.3c5.59,3.29,12.61,4.38,19.46-2.82a30.51,30.51,0,0,0,2.85-3.5Z" transform="translate(-108.25 -5.83)"/></g><g id="fcdb6e69-a697-48c2-ac6a-8da0ea7c9414" data-name="頓"><path class="a9dbe03d-c9bb-4885-a7ea-53be58f51e70" d="M488.05,355.23l-12.77,5.56-1.12-1.9,2.65-2.15L470,343.5a45.37,45.37,0,0,0,2.45-3.92,5.05,5.05,0,0,0,2.06.44s4.15,3.75,9.52,2.72C488.87,341.82,485.61,352,488.05,355.23Z" transform="translate(-108.25 -5.83)"/></g><g id="af293b22-f31b-4e32-9b4e-45fa09d760d5" data-name="郭"><path class="a9dbe03d-c9bb-4885-a7ea-53be58f51e70" d="M521.06,241c-8.85,6.38-4.42,12.25-7.61,14.17a4,4,0,0,0-.56.39c-2.8,2.24-4,7.65-4,7.65-2.46,1.26-4.1.72-5.14-.21a6,6,0,0,1-1.62-2.6l-1.6-.53-3.34-1.13-1-.36-2.41-.86a121.5,121.5,0,0,1-11.36-4.62c-.31-.14-.6-.29-.88-.43-.56-.28-1.06-.54-1.49-.79l-.63-.36-.28-.17a12.52,12.52,0,0,0,3.2-4.2l3.4-6.12-.6-.54a16.33,16.33,0,0,0,8.75-9l.19.18s7.75-2.87,11.51-1.22a8.65,8.65,0,0,0,5,4.62,27.54,27.54,0,0,1,9.26,5C520.61,240.5,521.06,241,521.06,241Z" transform="translate(-108.25 -5.83)"/></g><g id="f00dc9ba-9ccc-4b93-a190-ca4e8fa16b84" data-name="遂"><path class="a9dbe03d-c9bb-4885-a7ea-53be58f51e70" d="M536.48,259.9c-1.1,4.06-3.09,10.14-5.29,10.66l-7.36,4.1s-1.68-9.63-9.23-1.87l-2.68-4.48-3.07-5.14s1.24-5.41,4-7.65a25.8,25.8,0,0,0,8.42,2.65h0a28.92,28.92,0,0,0,11.4-.62l2.56,2.35Z" transform="translate(-108.25 -5.83)"/></g><g id="a166063b-a40c-4681-8b31-24fbeab141f7" data-name="曹"><path class="a9dbe03d-c9bb-4885-a7ea-53be58f51e70" d="M514.6,272.79v9.36c-2.81-.48-5.94.63-8.13,1.67a23.61,23.61,0,0,0-2.76,1.56S496,299.8,491.84,297.86a2,2,0,0,1-.56-.39,10.88,10.88,0,0,0-9.11-2.64,13.89,13.89,0,0,0,.85-1.41c3.59-6.86.71-14.68.71-14.68L497,268.28l5.36-1.76,1.37-3.56c1,.93,2.68,1.47,5.14.21l3.07,5.14Z" transform="translate(-108.25 -5.83)"/></g><g id="b680762f-f33e-4287-80fe-9b8a2b759ed6" data-name="宋"><path class="a9dbe03d-c9bb-4885-a7ea-53be58f51e70" d="M552.89,329l-.32,1.44-.76,3.35-.7,3.13-.85.22-15.62,4-.38.1-10.89-3.84-7.24-2.55c-7.15,1.28-32-10.72-32-10.72s-.68-6,1.53-9,.85-12.26.85-12.26l5.33-5.05c4.11,1.94,11.87-12.48,11.87-12.48a23.61,23.61,0,0,1,2.76-1.56c-.63,4-1.09,9.1.3,10.34,2.38,2.12,7.49,4.86,12.42,0,4.08-4,3.63-.16,5.55,2.58a5,5,0,0,0,1.6,1.52c3.92,2.27,11.06,1.5,15.15-7.22a3,3,0,0,0,.3-1.54c11.44,4.95,9.57,14.41,9.57,14.41-.52.38-1,.75-1.5,1.12C528.21,321.74,552.89,329,552.89,329Z" transform="translate(-108.25 -5.83)"/></g><g id="e4535ad3-2bfb-453b-99c1-0ccea46baf87" data-name="戴"><path class="a9dbe03d-c9bb-4885-a7ea-53be58f51e70" d="M486.51,302.91s1.36,9.2-.85,12.26-1.53,9-1.53,9c-2.51,1.47-6.71,1.14-10.3-.27s-6.38-3.77-6.55-6.54c0-.31,0-.65-.08-1-.34-3.92-1.34-10.35-2-14.39h1.66v-7.15h15.32a10.88,10.88,0,0,1,9.11,2.64,2,2,0,0,0,.56.39Z" transform="translate(-108.25 -5.83)"/></g><g id="e8c29db0-249c-4e39-a137-06f06a4d3fac" data-name="蕭"><path class="a9dbe03d-c9bb-4885-a7ea-53be58f51e70" d="M558.34,311.26v14.82l-5.77,4.4.32-1.44s-24.68-7.3-3-24Z" transform="translate(-108.25 -5.83)"/></g><g id="b262217f-0fb8-40d1-ad31-07abcd705e23" data-name="彭"><path class="a9dbe03d-c9bb-4885-a7ea-53be58f51e70" d="M582,318.06l-1.2,6.47h0l-1.52,8.25a32,32,0,0,1-2.38,2.5c-2.37,2.23-6.23,5.27-10.26,5.89a7.48,7.48,0,0,1-1.15.12c-4.41.16-11-2.29-15.23-4.12l.85-.22.7-3.13.76-3.35,5.77-4.4V314a18.07,18.07,0,0,0,.34-7.18c-.08-.63-.2-1.29-.34-2l3.11.93,13.25,4,.66.2Z" transform="translate(-108.25 -5.83)"/></g><g id="ab7b3128-f49e-42a2-a3ef-c66405ddea3e" data-name="郤"><path class="a9dbe03d-c9bb-4885-a7ea-53be58f51e70" d="M417.06,294.55c-14.56.48-13.44,7.17-13.44,7.17l-.08,0a19.54,19.54,0,0,1-4.12-3.59c-2.08-2.43-3.8-5.93-2-10,3.3-7.42,14.18-2.61,15.3-2.1l1.77,2.87,2.57,4.16A7.59,7.59,0,0,0,417.06,294.55Z" transform="translate(-108.25 -5.83)"/></g><g id="b2c80d3e-1512-46e1-868c-727543b792a7" data-name="干"><path class="a9dbe03d-c9bb-4885-a7ea-53be58f51e70" d="M425,302.67a31.87,31.87,0,0,0-2.38,6c-5.27-3.92-14.92-2.26-20.09-1,0-1.72.06-2.95.06-2.95l1-3.07s-1.12-6.69,13.44-7.17a3.13,3.13,0,0,0,3.88,2.92A8.75,8.75,0,0,0,425,302.67Z" transform="translate(-108.25 -5.83)"/></g><g id="a40fb4b1-39ba-43d6-94d8-45e41959d8cd" data-name="溫"><path class="a9dbe03d-c9bb-4885-a7ea-53be58f51e70" d="M422.49,310c.19,2.77-.43,8.88-4.6,9.43H406.11a13.55,13.55,0,0,1,.84-1.07c-3.68-.7-4.35-6.88-4.41-10.66,5.17-1.29,14.82-2.95,20.09,1A5.08,5.08,0,0,0,422.49,310Z" transform="translate(-108.25 -5.83)"/></g><g id="b9ed1a49-7db8-45bf-8a6c-b64391fe3030" data-name="劉"><path class="a9dbe03d-c9bb-4885-a7ea-53be58f51e70" d="M408.55,332.7c-8-3.92-4.29-10.63-2.44-13.23H417.7S428,332.4,408.55,332.7Z" transform="translate(-108.25 -5.83)"/></g><g id="a4b7f8e7-ac77-4db6-9f20-b7d442971f15" data-name="鄭"><path class="a9dbe03d-c9bb-4885-a7ea-53be58f51e70" d="M473.83,323.92a11.81,11.81,0,0,1-3.69,4.58l-.15.13a20.87,20.87,0,0,1-2.92,1.88,33.35,33.35,0,0,1-4.38,1.93,70,70,0,0,1-17.35,3.4c-1,.08-1.6.1-1.6.1a20.76,20.76,0,0,1-3.62,7.58l-.27.33c-4.74,5.61-11.85,5.31-18.09,3.38a46.32,46.32,0,0,1-7.84-3.32l.25-.48L412,339.21l-3.41-6.51c19.44-.3,9.15-13.23,9.15-13.23h.19c4.17-.55,4.79-6.66,4.6-9.43a5.08,5.08,0,0,1,.14-1.31,31.87,31.87,0,0,1,2.38-6c4.36,2.4,10.44.73,13.06-.19a24.13,24.13,0,0,0,10.31,3L454,302h11.15c.67,4,1.67,10.47,2,14.39,0,.36.06.7.08,1C467.45,320.15,470.34,322.55,473.83,323.92Z" transform="translate(-108.25 -5.83)"/></g><g id="e6e2f84b-5b26-41bc-aaff-871b8266d17f" data-name="葛"><path class="a9dbe03d-c9bb-4885-a7ea-53be58f51e70" d="M432.77,284.41l-9.15,10.1-2.68,3a3.13,3.13,0,0,1-3.88-2.92,7.59,7.59,0,0,1,0-1.51l-2.57-4.16L412.72,286l.08,0c-.25-.28-3.51-4.28,8.65-6.49,2.07-.38,4.59-.71,7.65-1a23.25,23.25,0,0,0,1.07,2.33A11.57,11.57,0,0,0,432.77,284.41Z" transform="translate(-108.25 -5.83)"/></g><g id="bc04ab0e-48f8-46aa-a8f8-77181fb7c78e" data-name="共"><path class="a9dbe03d-c9bb-4885-a7ea-53be58f51e70" d="M440.81,291.67v0L439.36,302s-.48.21-1.29.5c-2.62.92-8.7,2.59-13.06.19a8.75,8.75,0,0,1-4.07-5.2l2.68-3,9.15-10.1a4.61,4.61,0,0,0,.63.46s4.77,1.43,6.66,4.3A4.21,4.21,0,0,1,440.81,291.67Z" transform="translate(-108.25 -5.83)"/></g><g id="e1b8e49f-13f9-4037-aa8a-106365462cdc" data-name="凡"><path class="a9dbe03d-c9bb-4885-a7ea-53be58f51e70" d="M454,302l-5.66,3.49a24.13,24.13,0,0,1-10.31-3c.81-.29,1.29-.5,1.29-.5l1.45-10.28v.07s5-2.3,11.49,1.27l1.42,8.94Z" transform="translate(-108.25 -5.83)"/></g><g id="f5882790-7d4c-4ba1-88ae-c486fb3314c3" data-name="邶"><path class="a9dbe03d-c9bb-4885-a7ea-53be58f51e70" d="M468.3,249.3v3.76l-2,4.75c-4.43,10.38-8.21,12.25-8.21,12.25l-21.95.5c-1-2.3-4.16-11.7,6.89-20.58A231.54,231.54,0,0,1,468.3,249.3Z" transform="translate(-108.25 -5.83)"/></g><g id="b57f0e6f-2289-4289-be3a-3ef1bac33be1" data-name="魏"><path class="a9dbe03d-c9bb-4885-a7ea-53be58f51e70" d="M350.65,320c-5.31,3.35-9.54,7.64-9.46,12.77a22.58,22.58,0,0,1-.28,4.12c-.91,5.36-3.89,6.17-6,6a7.3,7.3,0,0,1-1.94-.42l-.38-.15c-4.59-4-2.67-11.87-2.67-11.87-6.2.35-8.82-.27-9.92-.94s-.72-1.26-.72-1.26c7.14-5.75,9.72-10.53,10.42-14,5.54-1.12,13.2-.17,18.2.71-.13.13-.27.25-.41.37S346.38,318.74,350.65,320Z" transform="translate(-108.25 -5.83)"/></g><g id="a13ca15b-636b-4d1f-bba3-2a7c340d969b" data-name="程"><path class="a9dbe03d-c9bb-4885-a7ea-53be58f51e70" d="M331.07,356.74,317,362l-15.63.06-.2-4c-7.83-3.94-8.51-8.93-8.51-8.93l2.38-7.58.68-4.93c7-2.73,7.15-6.3,7.15-6.3a50.92,50.92,0,0,0,17.11-.78c1.1.67,3.72,1.29,9.92.94,0,0-1.92,7.83,2.67,11.87l.38.15C332,346.35,330.53,353.19,331.07,356.74Z" transform="translate(-108.25 -5.83)"/></g><g id="a05c294e-25d7-4b49-8057-8058211d1ad3" data-name="虞"><path class="a9dbe03d-c9bb-4885-a7ea-53be58f51e70" d="M359.19,338.15l5.34-1.19,1.34-18.19c-8,2-12.62,2-15.22,1.25-5.31,3.35-9.54,7.64-9.46,12.77a22.58,22.58,0,0,1-.28,4.12,12.28,12.28,0,0,1-.57,2.18c6.23.11,12.39.36,18.62,1Z" transform="translate(-108.25 -5.83)"/></g><g id="addeec53-d575-4183-9f36-f4a6b0639796" data-name="虢"><path class="a9dbe03d-c9bb-4885-a7ea-53be58f51e70" d="M340.34,339.09c-1.25,3.4-3.65,4-5.47,3.83a7.3,7.3,0,0,1-1.94-.42c-.94,3.85-2.4,10.69-1.86,14.24a5.19,5.19,0,0,0,.38,1.32s2.49-.09,5.89,0c7,.16,17.73,1,18.84,4.79L359,340.05C352.73,339.45,346.57,339.2,340.34,339.09Z" transform="translate(-108.25 -5.83)"/></g><g id="b1e6b45c-567d-440f-9ea8-e52104a7c3a0" data-name="焦"><path class="a9dbe03d-c9bb-4885-a7ea-53be58f51e70" d="M370,358.59l-1.68,2.12-.07.08-.85,2H356.18l3-24.68,5.34-1.19-.06.85C380.54,341.42,373.64,353.57,370,358.59Z" transform="translate(-108.25 -5.83)"/></g><g id="a4e3d05b-bd72-4489-a612-0a151670d240" data-name="周"><path class="a9dbe03d-c9bb-4885-a7ea-53be58f51e70" d="M414.17,343.43l-.25.48-5.5,10.76h0l-.07.15s-8.82-17.87-29.75-3.57l-2.22,9.53h-8.17l.07-.08c.21-.24.87-1,1.68-2.12,3.68-5,10.58-17.17-5.49-20.78l.06-.85,1.34-18.19.1,0s7.69,1.71,9.39-6.12a5,5,0,0,1,1.59-2.77,3.22,3.22,0,0,1,.28-.24,6.61,6.61,0,0,1,.91-.62l.57-.28.53-.23q.28-.12.57-.21c.39-.13.79-.25,1.22-.36s.58-.14.88-.19.91-.18,1.38-.25l1.2-.16.75-.08c1.34-.14,2.74-.25,4.18-.35,1.24-.09,2.5-.17,3.76-.29l.19,0c.56,0,1.12-.1,1.68-.17l1-.12,1-.14c.32,0,.65-.1,1-.16s.64-.11.95-.18.64-.13.95-.21a23.59,23.59,0,0,0,2.71-.8s-.1,1.23-.06,2.95c.06,3.78.73,10,4.41,10.66a13.55,13.55,0,0,0-.84,1.07c-1.85,2.6-5.53,9.31,2.44,13.23l3.41,6.51Z" transform="translate(-108.25 -5.83)"/></g><g id="af880acb-fbd8-4c78-83fc-3f7ba403ea8e" data-name="毛"><path class="a9dbe03d-c9bb-4885-a7ea-53be58f51e70" d="M412,369a185.94,185.94,0,0,1-25.09-1.16c-6-.8-9.07-4.09-10.65-7.06h.09l2.22-9.53c20.93-14.3,29.75,3.57,29.75,3.57l.07-.15,1.55,6.14Z" transform="translate(-108.25 -5.83)"/></g><g id="b118fce9-760b-468a-82c3-ff089291ed6b" data-name="密"><path class="a9dbe03d-c9bb-4885-a7ea-53be58f51e70" d="M198,294.55c-3.74-.71-14.3,22.32-14.3,22.32H151c-7.49-16.51-2-23.83-2-23.83,19.91-20.36,43-3.45,48,.67C197.66,294.23,198,294.55,198,294.55Z" transform="translate(-108.25 -5.83)"/></g><g id="af6fd403-74f5-4758-b5a9-1e4adca3f752" data-name="魚"><path class="a9dbe03d-c9bb-4885-a7ea-53be58f51e70" d="M187.68,368l-10.11,7.91-9.53.68c-3.46,4.71-9.09,4.9-11.9,4.66a13.86,13.86,0,0,1-1.71-.24c-4.16-11.3-5.34-25.76-5.66-33.91h0c1.21-1.53,6.94-3.62,30.51-2.08l7.49,13.87a34.11,34.11,0,0,0,0,5.07A12.08,12.08,0,0,0,187.68,368Z" transform="translate(-108.25 -5.83)"/></g><g id="beb8a9d4-82c2-47b2-82b2-1af344bbe3e8" data-name="苴"><path class="a9dbe03d-c9bb-4885-a7ea-53be58f51e70" d="M199.7,407.6l-1.7,6.12L175.87,425l-25.19-2s-15.62-19.65,5.46-41.63c2.81.24,8.44.05,11.9-4.66l9.53-.68L187.68,368a3.46,3.46,0,0,0,.79,1.1c.9.77,2.73,1.11,4.76,1.16v11.09s-3.4,2.39,4.77,9.19v7.83S200.38,396.7,199.7,407.6Z" transform="translate(-108.25 -5.83)"/></g><g id="bfc792c9-d464-41b8-8c9c-2869c0d106b1" data-name="褒"><path class="a9dbe03d-c9bb-4885-a7ea-53be58f51e70" d="M252.83,394.76,240,403.85c-15.52,11.58-17.85,3.75-17.85,3.75H199.7c.68-10.9-1.7-9.2-1.7-9.2v-7.83c-8.17-6.8-4.77-9.19-4.77-9.19V370.29c3.34.11,7.24-.53,8.51-1.16l12.56.76,28.57,1.73c-8.75,2.22,5.43,9.89,5.43,9.89.38,10.34,4,9.58,4,9.58A18.74,18.74,0,0,0,252.83,394.76Z" transform="translate(-108.25 -5.83)"/></g><g id="a8ef8e91-20f1-4353-b1eb-883a4e5b323f" data-name="郧"><path class="a9dbe03d-c9bb-4885-a7ea-53be58f51e70" d="M357.07,369.64l-10.35,11.62v5.61L342,393.64l.13,11.36-6.3,3.61-3.28,1.88H306.26s-12.65,8.65-21.73,10.59c-5.63,1.22-9.89-.16-8.91-7.78,0,0-11-6.13-10.47-11.24,0,0-9.75,2.49-12.32-7.3a18.74,18.74,0,0,1-.57-3.67s-3.58.76-4-9.58c0,0-14.18-7.67-5.43-9.89a25.32,25.32,0,0,1,5.43-.58l1.82-.47,21.6-5.53,11.43-2.93,18.2-.07L317,362l14.09-5.24a5.19,5.19,0,0,0,.38,1.32s2.49-.09,5.89,0c7,.16,17.73,1,18.84,4.79l.82,6.3Z" transform="translate(-108.25 -5.83)"/></g><g id="fb074ef0-29cc-4b24-921b-44c03234af88" data-name="翼"><path class="a9dbe03d-c9bb-4885-a7ea-53be58f51e70" d="M351.33,300.34c-5.25-1-13.47-.22-18.7.51,1.06-3.14,1.31-6.85-1.18-10,0,0,.37-9.32,3.07-9.53C334.52,281.3,360.11,277.59,351.33,300.34Z" transform="translate(-108.25 -5.83)"/></g><g id="afd63396-049e-4d07-9cf8-4a9e09e1b3f9" data-name="郇"><path class="a9dbe03d-c9bb-4885-a7ea-53be58f51e70" d="M351.5,309.76a13.67,13.67,0,0,1-3.64,5.21c-5-.88-12.66-1.83-18.2-.71.83-4.1-.94-6.41-.94-6.41a24.26,24.26,0,0,0,3.91-7c5.23-.73,13.45-1.55,18.7-.51,0,.12-.09.24-.14.36A11.83,11.83,0,0,1,351.5,309.76Z" transform="translate(-108.25 -5.83)"/></g><g id="beb6784f-fc9b-4ad1-9d99-5c42fd0a9857" data-name="衛"><path class="a9dbe03d-c9bb-4885-a7ea-53be58f51e70" d="M479.06,251.11c-3,3.33-4.95,9.82-6.16,15.65a107.49,107.49,0,0,0-1.74,11.81c-11.61,1.88-10.52,9.71-10.52,9.71-.69-.34-2.17.36-3.71,1.33A49.64,49.64,0,0,0,452.3,293c-6.47-3.57-11.49-1.27-11.49-1.27v-.1a4.21,4.21,0,0,0-.75-2.5c-1.89-2.87-6.66-4.3-6.66-4.3a4.61,4.61,0,0,1-.63-.46,11.57,11.57,0,0,1-2.6-3.48,23.25,23.25,0,0,1-1.07-2.33l.39,0,3.29-3.6,3.56-3.88s-.1-.19-.24-.53l21.95-.5s3.78-1.87,8.21-12.25l2-4.75v1.34S474.46,255,479.06,251.11Z" transform="translate(-108.25 -5.83)"/></g><g id="befb6a4d-9a72-48c5-bf2e-d07b6d7635c9" data-name="宿"><path class="a9dbe03d-c9bb-4885-a7ea-53be58f51e70" d="M532.66,244.19a11,11,0,0,1-8.83-4.2l-.38-.52a25.17,25.17,0,0,0-3.68.33c.84.7,1.29,1.16,1.29,1.16-8.85,6.38-4.42,12.25-7.61,14.17a4,4,0,0,0-.56.39,25.8,25.8,0,0,0,8.42,2.65h0a28.92,28.92,0,0,0,11.4-.62h0C532.59,253,533.29,248.75,532.66,244.19Z" transform="translate(-108.25 -5.83)"/></g><g id="b878e683-c723-4f19-ae00-c45a350a1f9c" data-name="郕"><path class="a9dbe03d-c9bb-4885-a7ea-53be58f51e70" d="M544.33,241.41c-1.12.55-6.38,2.94-11.67,2.78.63,4.56-.07,8.81.06,13.36l2.56,2.35h9.51l3-10.67Z" transform="translate(-108.25 -5.83)"/></g><g id="bf6b41a5-2afb-48bb-bcc9-ed48a9f49018" data-name="霍"><path class="a9dbe03d-c9bb-4885-a7ea-53be58f51e70" d="M377.32,209l-.26,1.2s-8.85-1-7.49,30a19.92,19.92,0,0,1,1.61,5.39c-5.89-1.95-18.67-4.28-28.8,7.13.54-4-3.26-8.8-7.35-12.64,4.65-2.67,9.78-15.37,9.78-15.37,10.21-.51,22.47-4.34,22.47-4.34C367.11,213.42,373.25,210.28,377.32,209Z" transform="translate(-108.25 -5.83)"/></g><g id="b2c4c36b-3356-4e06-b378-c007fe3bafd9" data-name="楊"><path class="a9dbe03d-c9bb-4885-a7ea-53be58f51e70" d="M362.09,265.64l-20.9-2.36.3-8.28a5.43,5.43,0,0,0,.89-2.37c10.13-11.41,22.91-9.08,28.8-7.13C372,250.75,371.34,258.91,362.09,265.64Z" transform="translate(-108.25 -5.83)"/></g><g id="aaef3cc3-b94f-4ec4-b684-c5795aff07a1" data-name="翟"><path class="a9dbe03d-c9bb-4885-a7ea-53be58f51e70" d="M342.38,252.63a5.43,5.43,0,0,1-.89,2.37l-.3,8.28-.21,0s-.68,7.14-9.53,9.53a83.72,83.72,0,0,1-20.56,4.42H304l-2.66-2.38-3.33-3s.35.32.53-1,.22-4.33-.41-10.92c-1.28-13.24,8.93-14.35,8.93-14.35H316l13.7-3.91,4.86-1.39A3.07,3.07,0,0,0,335,240C339.12,243.83,342.92,248.58,342.38,252.63Z" transform="translate(-108.25 -5.83)"/></g><g id="aa00e37d-553e-4275-9924-c4116ca9afd4" data-name="梁"><path class="a9dbe03d-c9bb-4885-a7ea-53be58f51e70" d="M331.45,290.83c2.49,3.17,2.24,6.88,1.18,10a24.26,24.26,0,0,1-3.91,7H309.15c-4.09-9.36-5.19-30.64-5.19-30.64a47.15,47.15,0,0,0,6.93,0,83.72,83.72,0,0,0,20.56-4.42l1.1,3,2,5.47C331.82,281.51,331.45,290.83,331.45,290.83Z" transform="translate(-108.25 -5.83)"/></g><g id="a8296da2-e3e6-4e47-b7e7-d95c6cc7e458" data-name="秦"><path class="a9dbe03d-c9bb-4885-a7ea-53be58f51e70" d="M329.66,314.26c-.7,3.49-3.28,8.27-10.42,14,0,0-.28.65.72,1.26a50.92,50.92,0,0,1-17.11.78s-.17,3.57-7.15,6.3l-.68,4.93-2.38,7.58s.68,5,8.51,8.93l.2,4-18.2.07L271.72,365l-21.6,5.53-1.82.47a25.32,25.32,0,0,0-5.43.58l-28.57-1.73-12.56-.76c-1.27.63-5.17,1.27-8.51,1.16-2-.05-3.86-.39-4.76-1.16a3.46,3.46,0,0,1-.79-1.1,12.08,12.08,0,0,1-.9-4,34.11,34.11,0,0,1,0-5.07L179.28,345c-23.57-1.54-29.3.55-30.51,2.08h0a1.11,1.11,0,0,0-.19,1.27c-9.16-12.1-14.57-24.21-9.13-23.86S151,316.87,151,316.87H183.7s10.56-23,14.3-22.32c0,0-.34-.32-1-.84,16.76-4.77,39.8-5.69,39.8-5.69s44.25-18,48-19.66c2.49-1.13,9.38.95,13.69,2.46-.18,1.35-.53,1-.53,1l3.33,3,2.66,2.38s1.1,21.28,5.19,30.64h19.57S330.49,310.16,329.66,314.26Z" transform="translate(-108.25 -5.83)"/></g><g id="a6044d4e-5f7e-43f7-8aab-80253941a66b" data-name="向"><path class="a9dbe03d-c9bb-4885-a7ea-53be58f51e70" d="M625.34,276.54v9.86s-.88-.19-2.24-.53c-4.43-1.07-14-3.63-15.4-6l-5.44-.4-1.71-8.93-.36-.61a39.75,39.75,0,0,1,25.11-2c1.12.26,2.26.57,3.42.94C628.72,268.91,630.64,274.6,625.34,276.54Z" transform="translate(-108.25 -5.83)"/></g><g id="a7cab48f-4228-4e53-ad04-cb7ecf4927c9" data-name="郯"><path class="a9dbe03d-c9bb-4885-a7ea-53be58f51e70" d="M633.49,300.53l0,0c-.77.47-13.12,6.25-13.12,6.25l-.71-1.34s-1,.46-2.84,1c-5.71,1.86-19,5-30.3-1.63l1.48-4c9.53-3.06,11.06-17.05,11.06-17.05l-2.93-4.33h6.17l5.44.4c1.4,2.35,11,4.91,15.4,6,1.36.34,2.24.53,2.24.53v8S633.23,300.53,633.49,300.53Z" transform="translate(-108.25 -5.83)"/></g><g id="a5b181b5-00c2-4cd6-96f6-9d32a803fd6a" data-name="鄫"><path class="a9dbe03d-c9bb-4885-a7ea-53be58f51e70" d="M599,283.82s-1.53,14-11.06,17.05l-1.48,4a27.41,27.41,0,0,1-4.48-3.26l-2.29,2.54-1.27-19.85c2-.47,5.09-4.83,5.09-4.83h12.56Z" transform="translate(-108.25 -5.83)"/></g><g id="a69f5650-da6d-49b6-8486-e86c486bc636" data-name="薛"><path class="a9dbe03d-c9bb-4885-a7ea-53be58f51e70" d="M579.71,304.17l-5,5.54-13.25-4-3.11-.93c.14.69.26,1.35.34,2a2.09,2.09,0,0,1-1.24-1.91,2,2,0,0,1,.41-1.23c.13.28.23.52.31.7-.07-.21-.14-.49-.22-.82-1-3.76-2.57-14.54,2.78-17.45,2.34-1.26,3.32.42,6.81-1a14.88,14.88,0,0,0,5.53-4.19,7.13,7.13,0,0,0,3.83-.35c-.24,3.22.5,4.07,1.55,3.82Z" transform="translate(-108.25 -5.83)"/></g><g id="adc78c1d-81c5-4f2b-8ec0-846817ced648" data-name="郜"><path class="a9dbe03d-c9bb-4885-a7ea-53be58f51e70" d="M514.6,279.49v2.66c-2.81-.48-5.94.63-8.13,1.67-.63,4-1.09,9.1.3,10.34,2.38,2.12,7.49,4.86,12.42,0,3.8-3.74,3.67-.64,5.19,2,1.16-4.84.76-9.85,1.49-14.65C521.92,280.64,517.88,280,514.6,279.49Z" transform="translate(-108.25 -5.83)"/></g><g id="aa40d13a-da0b-42bb-8140-08217e04f116" data-name="极"><path class="a9dbe03d-c9bb-4885-a7ea-53be58f51e70" d="M541.79,289.5c-.34-3.58-7.95-6.21-15.92-8-.73,4.8-.33,9.81-1.49,14.65.11.19.23.39.36.57a5,5,0,0,0,1.6,1.52c3.92,2.27,11.06,1.5,15.15-7.22A3,3,0,0,0,541.79,289.5Z" transform="translate(-108.25 -5.83)"/></g><g id="aac39d87-3e4c-444f-af63-3421af6d8528" data-name="卢"><path class="a9dbe03d-c9bb-4885-a7ea-53be58f51e70" d="M523.45,239.47a25.17,25.17,0,0,0-3.68.33,27.54,27.54,0,0,0-9.26-5,8.65,8.65,0,0,1-5-4.62l.06,0c3.75,1.71-.51-2.21,8.17-3.23l7.32-9.36v-7.15h-2.72s-.34-.2-.89-.57c4.28-.69,9.46-1.55,14.17,2.44,0,0,5.7,1.17,6.11,9.36l-8.58,6.81S517.71,231.25,523.45,239.47Z" transform="translate(-108.25 -5.83)"/></g><g id="ae1fee74-3679-4204-937b-a3e98fca35c6" data-name="譚"><path class="a9dbe03d-c9bb-4885-a7ea-53be58f51e70" d="M544.55,241.3l-.22.11c-1.81.88-14.38,6.58-20.5-1.42l-.38-.52c-5.74-8.22,5.7-10.94,5.7-10.94l8.58-6.81c0,.05,0,.11,0,.17S549.32,226.49,544.55,241.3Z" transform="translate(-108.25 -5.83)"/></g><g id="a9cf2f4e-3a72-4f20-93ab-6ba1615ea043" data-name="刑"><path class="a9dbe03d-c9bb-4885-a7ea-53be58f51e70" d="M476.48,212.53l-3.08,13.11a2.39,2.39,0,0,0-2.21,2.89H458.05l-9.5-8-.68-4.08-9.5-8.36,1.19-1.16,9-8.7,2.42-1.31,1.33-.73h22.3s-2.36,8.34,1.88,8.85c0,0,.15.13.38.37C478,206.57,481,210.26,476.48,212.53Z" transform="translate(-108.25 -5.83)"/></g><g id="a59dff0e-c420-44d4-896c-37cc6be4cf2b" data-name="州"><path class="a9dbe03d-c9bb-4885-a7ea-53be58f51e70" d="M628.13,224.23V232l-17.5,7.81-.72-.21c.56-1.27,1.45-4-.34-5.1l-.11-.07c-2.39-1.46-6.52-1.29-6.52-1.29l-.68-4.6-3.73-8.26a14.5,14.5,0,0,1,12.1-3.31,8.67,8.67,0,0,0,2.24-1.26A33.46,33.46,0,0,1,623,224.57C624.89,224.52,626.59,224.4,628.13,224.23Z" transform="translate(-108.25 -5.83)"/></g><g id="ad3ed71b-bcc3-4bc6-863b-3c19b671d5fd" data-name="莒"><path class="a9dbe03d-c9bb-4885-a7ea-53be58f51e70" d="M641.87,243.67l1.11,4.56-6.6,1.45L634,259l-5.24,10c-1.16-.37-2.3-.68-3.42-.94a39.75,39.75,0,0,0-25.11,2,39.77,39.77,0,0,0-4.82-6.39,58.07,58.07,0,0,0,5-4.56c1.88-2,1.88-13.45,1.88-13.45-.63,1.16-3.26-.72-5.18-2.34.91-1.21,3.76-2.93,12.49-2.93,0,0,.15-.27.34-.69l.72.21,17.5-7.81v.29c3.28-.32,7.08.49,10.67,1.39,2.28.57,4.46,1.17,6.39,1.55-.1,2.05-.05,5.27,1.15,5.87C648.13,242,646.09,244.34,641.87,243.67Z" transform="translate(-108.25 -5.83)"/></g><g id="ebd36ab7-f400-4261-92fb-7f0059ca6b58" data-name="阳"><path class="a9dbe03d-c9bb-4885-a7ea-53be58f51e70" d="M602.26,245.55s0,11.41-1.88,13.45a58.07,58.07,0,0,1-5,4.56l-.43.35s-3.24-3.21-10.39-2.87l0-1-.72-15.21c.56-.61,1-1.17,1.43-1.63a10.54,10.54,0,0,0,1,.16c1.7.17,7.31-1.87,10.38,1a1.73,1.73,0,0,1,.44-1.15C599,244.83,601.63,246.71,602.26,245.55Z" transform="translate(-108.25 -5.83)"/></g><g id="a69f378b-b0eb-424b-b6b7-5fe00f6c43af" data-name="牟"><path class="a9dbe03d-c9bb-4885-a7ea-53be58f51e70" d="M585.21,243.18c-.39.46-.87,1-1.43,1.63-2.7,2.89-7.29,6.77-12.16,6.3-3.92-.38-6.69-4.15-8.44-7.74,1.12-2.47,4.53-8.62,10.14-6.84,0,0,6.47-1.7,7,2.56a5.12,5.12,0,0,0,3.39,3.66A9.2,9.2,0,0,0,585.21,243.18Z" transform="translate(-108.25 -5.83)"/></g><g id="e16d732b-f195-4063-b460-7912583d2b43" data-name="魯"><path class="a9dbe03d-c9bb-4885-a7ea-53be58f51e70" d="M584.5,260c-5.12,2.63-9.31,10.54-9.31,10.54l-4.8,5.66c-1.64-2.2-4.33-5-12-4.45-12.94.85-16.54,14.12-16.54,14.12,8.93,3.72,14.44,14.21,16.05,17.74a2,2,0,0,0-.41,1.23,2.09,2.09,0,0,0,1.24,1.91,18.07,18.07,0,0,1-.34,7.18v-2.69L549.86,305c.48-.37,1-.74,1.5-1.12,0,0,1.87-9.46-9.57-14.41-.51-5.36-17.28-8.57-27.19-10v-6.7c7.55-7.76,9.23,1.87,9.23,1.87l7.36-4.1c2.2-.52,4.19-6.6,5.29-10.66h8.31l3-10.67-3.46-7.82.22-.11s13.79.34,18.22,3.06c0,0,.14-.39.41-1,1.75,3.59,4.52,7.36,8.44,7.74,4.87.47,9.46-3.41,12.16-6.3Z" transform="translate(-108.25 -5.83)"/></g><g id="bb378656-6a3a-4696-9f2f-003541296bc8" data-name="滕"><path class="a9dbe03d-c9bb-4885-a7ea-53be58f51e70" d="M573.06,280.85a14.88,14.88,0,0,1-5.53,4.19c-3.49,1.44-4.47-.24-6.81,1-5.35,2.91-3.73,13.69-2.78,17.45.08.33.15.61.22.82-.08-.18-.18-.42-.31-.7-1.61-3.53-7.12-14-16.05-17.74,0,0,3.6-13.27,16.54-14.12,7.72-.51,10.41,2.25,12,4.45.35.48.65.93.94,1.31h0l.24.31C571.36,279.72,572.08,280.55,573.06,280.85Z" transform="translate(-108.25 -5.83)"/></g><g id="ae67710a-feba-4cef-8371-67fda26e0aa3" data-name="邾"><path class="a9dbe03d-c9bb-4885-a7ea-53be58f51e70" d="M602.26,279.49H583.53s-3.11,4.36-5.09,4.83c-1.05.25-1.79-.6-1.55-3.82a7.13,7.13,0,0,1-3.83.35c-1-.3-1.7-1.13-1.48-3,0-.09,0-.19,0-.29l-.28,0h0c-.29-.38-.59-.83-.94-1.31l4.8-5.66s4.19-7.91,9.31-10.54l0,1c7.15-.34,10.39,2.87,10.39,2.87l.43-.35a39.77,39.77,0,0,1,4.82,6.39l.36.61Z" transform="translate(-108.25 -5.83)"/></g><g id="ae4467a7-5336-4c0a-a6fb-b570681682bc" data-name="黎"><path class="a9dbe03d-c9bb-4885-a7ea-53be58f51e70" d="M458.05,228.53s-13.5,7.49-21.71,7.15-10.6-5.79-10.6-5.79l.35-15.32s5.44-6.8,11.91-6.12l.37-.36,9.5,8.36.68,4.08Z" transform="translate(-108.25 -5.83)"/></g><g id="a4c28785-41d7-4a5a-a61d-e67c2e9dc858" data-name="聂"><path class="a9dbe03d-c9bb-4885-a7ea-53be58f51e70" d="M521.06,210.49v7.15L513.74,227c-8.68,1-4.42,4.94-8.17,3.23l-.06,0c-3.76-1.65-11.51,1.22-11.51,1.22l-.19-.18-8.15-7.65V208.09l9.53-8.66H508.3c.82,4.53,6.86,8.95,9.15,10.49.55.37.89.57.89.57Z" transform="translate(-108.25 -5.83)"/></g><g id="a9594ca9-424a-4749-b122-492d33aa2f4a" data-name="齊"><path class="a9dbe03d-c9bb-4885-a7ea-53be58f51e70" d="M609.91,239.59c-.19.42-.34.69-.34.69-8.73,0-11.58,1.72-12.49,2.93a1.73,1.73,0,0,0-.44,1.15c-3.07-2.89-8.68-.85-10.38-1a10.54,10.54,0,0,1-1-.16,9.2,9.2,0,0,1-1.52-.43,5.12,5.12,0,0,1-3.39-3.66c-.51-4.26-7-2.56-7-2.56-5.61-1.78-9,4.37-10.14,6.84-.27.6-.41,1-.41,1-4.43-2.72-18.22-3.06-18.22-3.06,4.77-14.81-6.81-19.41-6.81-19.41s0-.12,0-.17c-.41-8.19-6.11-9.36-6.11-9.36-4.71-4-9.89-3.13-14.17-2.44-2.29-1.54-8.33-6-9.15-10.49,1.36-20.94,9.7-22.3,9.7-22.3l6.81-16.51c1.49-.37,1.82-1.85,1.55-3.69L541,140.68l.48,1s8.17,4.09,7.49,9.88c0,0,2-4.77,14,13.27a44,44,0,0,1,8.46,4.26c4.8,3.09,8.48,5.48,9.24,9.36.7,3.57-1.55,6-.18,7.22,1.17,1.06,4.07.52,5.28-1.09,1.68-2.22-.5-5.61.4-6.19,1.28-.81,5,6.49,12.37,10l-.41.68-7.59,12.52c.85,7.83,7.83,18.21,7.83,18.21l.19.42,3.73,8.26.68,4.6s4.13-.17,6.52,1.29l.11.07C611.36,235.64,610.47,238.32,609.91,239.59Z" transform="translate(-108.25 -5.83)"/></g><g id="ad1ee2d5-3d54-46df-b41b-3f6486795edd" data-name="紀"><path class="a9dbe03d-c9bb-4885-a7ea-53be58f51e70" d="M625.91,198.23s-.24.45-.68,1.21c-1.9,3.32-7.47,12.61-12.36,16.26a8.67,8.67,0,0,1-2.24,1.26,14.5,14.5,0,0,0-12.1,3.31l-.19-.42s-7-10.38-7.83-18.21l7.59-12.52h25.43s0,.09,0,.27.09.87.18,1.58C624,193.42,624.73,197.52,625.91,198.23Z" transform="translate(-108.25 -5.83)"/></g><g id="b203ffee-6559-44d0-ab4e-1e2aafde5333" data-name="莱"><path class="a9dbe03d-c9bb-4885-a7ea-53be58f51e70" d="M709.79,183c-5.88,2.43-1.53-5.62-6.51-5.36s1.66,6.89-3.19,4.21-4.6,2.17-4.6,2.17-10,10.85-10.6,4.34c0,0-2.68-2.17-2.17,5.49l-8.42,5.49-9.45.77L663,203.93l-19,.63a51.14,51.14,0,0,0-5.63,1.92,39,39,0,0,0-13.14-7c.44-.76.68-1.21.68-1.21-1.18-.71-1.87-4.81-2.18-7.26-.09-.71-.15-1.27-.18-1.58,2.49-1.65,5.52-4.24,4.58-6.65,0,0,2.55-6.12-2.22-9.19h5.79s2.9-5.27,6.3-4.08c0,0,.68-7.32,1.87-7.15l-1-3.06H643V156s13.06-7.15,20-2,8.34,4.93,10.55,3.74c0,0,5.45,8.51,15,2.9,0,0,5.79,1.57,9.11-5.45,0,0,2.17.13,4.72,2.68l14.68-.89a6.68,6.68,0,0,1-3.19,5.61s4.09,3.71,1.79,5.24c0,0-6.38.76-3.19,4.34,0,0-.64,5.23,2.81.76S715.66,180.57,709.79,183Z" transform="translate(-108.25 -5.83)"/></g><g id="e57a424f-fbae-4e12-8dee-7d62e461cae2" data-name="淳于"><path class="a9dbe03d-c9bb-4885-a7ea-53be58f51e70" d="M628.13,224.23c-1.54.17-3.24.29-5.11.34a33.46,33.46,0,0,0-10.15-8.87c4.89-3.65,10.46-12.94,12.36-16.26a39,39,0,0,1,13.14,7,23.26,23.26,0,0,1,3.72,4S648.25,222,628.13,224.23Z" transform="translate(-108.25 -5.83)"/></g><g id="f95a449e-2844-4243-b9da-fb57742d1016" data-name="夷"><path class="a9dbe03d-c9bb-4885-a7ea-53be58f51e70" d="M664,209.33s-3.4,7.63-.34,11.37-7,6.3-7,6.3-1.19,2.55-5.44-8.17c0,0-.17,3.06-4.77,4.26s1.36,3.41,1.19,8.34c0,0,6.3-2.22,4.09,2.55-.88,1.88-3.37,1.88-6.6,1.24-1.93-.38-4.11-1-6.39-1.55-3.59-.9-7.39-1.71-10.67-1.39v-8.05c20.12-2.23,14-13.74,14-13.74a23.26,23.26,0,0,0-3.72-4,51.14,51.14,0,0,1,5.63-1.92l19-.63c.76-.43,3.9-1.92,6.13.6C671.7,207.43,668.47,212.26,664,209.33Z" transform="translate(-108.25 -5.83)"/></g><g id="e85e8d56-44f2-4639-8204-1f7b3aa5d0c7" data-name="孤竹"><path class="a9dbe03d-c9bb-4885-a7ea-53be58f51e70" d="M617.66,63.26h0c-.38.18-.78.35-1.19.5,0,0-5.53,3.06-8.94,3.4s2,2-6.81,6.81c0,0,2.36,12.1-16.66,18.93l-2.19-1-7-6c-5.79.46-9.22-1-11.17-3.32-3.76-4.41-2.09-11.84-1.36-14.41.16-.58.28-.91.28-.91-8.17-12,3.57-13.53,3.57-13.53s21.19,1.28,38.55,1.79a28.39,28.39,0,0,1,5.21.58C615.9,57.48,617.47,60.63,617.66,63.26Z" transform="translate(-108.25 -5.83)"/></g><g id="a76088aa-c124-455c-b2e2-55a318c24b3a" data-name="無終"><path class="a9dbe03d-c9bb-4885-a7ea-53be58f51e70" d="M563.68,82.66H525.06C515.87,74,514.84,67.59,516.84,63c2.87-6.56,12-9.23,12-9.23H553.4c3.46,2.31,6.57,8.42,8.92,14.44C561.59,70.82,559.92,78.25,563.68,82.66Z" transform="translate(-108.25 -5.83)"/></g><g id="e5979cef-39ad-4439-b986-32a79f8a229d" data-name="燕"><path class="a9dbe03d-c9bb-4885-a7ea-53be58f51e70" d="M584.06,92.91l-.36.13a1.33,1.33,0,0,1-.15.32,2.31,2.31,0,0,1-.29.43l-.29.33c-1.3,1.34-4.8,3.37-13.91,2.67l-17.7-1.36s-5.1,10.21-13.62,13.61L533,118.23l1.36,8.17,5.31,11.37,1.36,2.91-14.65,16.25,0,0-43.06-8.49-7-1.37h0l-1.8-.36a15.45,15.45,0,0,0,.89-1.61c3.75-8-3.44-12.68-3.44-12.68,1-7.19-4.94-12.92-9.33-16.1a34.18,34.18,0,0,0-4.46-2.8,17.59,17.59,0,0,1,2.48-11.06A17.41,17.41,0,0,1,463.28,99C492.89,55.34,511,60.45,511,60.45L516.84,63c-2,4.55-1,10.95,8.22,19.62h38.62c2,2.3,5.38,3.78,11.17,3.32l7,6Z" transform="translate(-108.25 -5.83)"/></g><g id="af42e877-2374-420a-949b-840c168ab8e3" data-name="代"><path class="a9dbe03d-c9bb-4885-a7ea-53be58f51e70" d="M462.63,116.35c-6.71.61-18.43-1.65-22.84,2.05-7.92,6.64-17.88,4.09-22.73,11,0,0-22.46-16.08,13-37.53,0,0,15.24-5.31,30.56,10.64a17.59,17.59,0,0,0-2.48,11.06A34.18,34.18,0,0,1,462.63,116.35Z" transform="translate(-108.25 -5.83)"/></g><g id="a9fcfd34-cc6c-454a-854c-c0fae1d13f5b" data-name="中山"><path class="a9dbe03d-c9bb-4885-a7ea-53be58f51e70" d="M474.51,146.74l1.8.36c-19.15,15.11-30.32,16.47-36.59,14.36l-.24-.08a11.92,11.92,0,0,1-7.1-6.47c-8.77,3-14.44,3.41-17.93,2.29-12.5-4,2.61-27.82,2.61-27.82,4.85-6.89,14.81-4.34,22.73-11,4.41-3.7,16.13-1.44,22.84-2.05,4.39,3.18,10.31,8.91,9.33,16.1,0,0,7.19,4.72,3.44,12.68A15.45,15.45,0,0,1,474.51,146.74Z" transform="translate(-108.25 -5.83)"/></g><g id="b96c5788-9799-46d3-ba0f-0422fd25a9ae" data-name="类煩"><path class="a9dbe03d-c9bb-4885-a7ea-53be58f51e70" d="M396.17,176.67v0l-1.31,1.38-9.19,9.79h0l-1.83,1.94,0,0c-12.44,10.17-47.59-7.26-47.59-7.26S324,157.72,365.49,150.23C405.57,143,396.83,174.46,396.17,176.67Z" transform="translate(-108.25 -5.83)"/></g><g id="a95361c1-3377-48f6-a77a-6485525fc806" data-name="晋"><path class="a9dbe03d-c9bb-4885-a7ea-53be58f51e70" d="M485.66,240.79l-3.4,6.12a12.52,12.52,0,0,1-3.2,4.2c-4.6,3.93-10.76,3.29-10.76,3.29v-5.1A231.54,231.54,0,0,0,443,250c-11.05,8.88-7.91,18.28-6.89,20.58.14.34.24.53.24.53L432.78,275l-3.29,3.6-.39,0c-3.06.25-5.58.58-7.65,1-12.16,2.21-8.9,6.21-8.65,6.49l-.08,0c-1.12-.51-12-5.32-15.3,2.1-1.8,4.05-.08,7.55,2,10a19.54,19.54,0,0,0,4.12,3.59l.08,0-1,3.07a23.59,23.59,0,0,1-2.71.8c-.31.08-.63.15-.95.21s-.63.13-.95.18l-1,.16-1,.14-1,.12-1.68.17-.19,0c-1.27.11-2.53.2-3.76.29-1.44.1-2.84.21-4.18.35l-.75.08-1.2.16c-.47.07-.93.15-1.38.25s-.59.12-.88.19-.83.23-1.22.36a5.54,5.54,0,0,0-.57.21,3.54,3.54,0,0,0-.53.23,5,5,0,0,0-.57.28,6.61,6.61,0,0,0-.91.62,3.22,3.22,0,0,0-.28.24,5,5,0,0,0-1.59,2.77c-1.7,7.83-9.39,6.12-9.39,6.12l-.1,0c-8,2-12.62,2-15.22,1.25-4.27-1.28-3.2-4.68-3.2-4.68s.28-.24.41-.37a13.67,13.67,0,0,0,3.64-5.21,11.83,11.83,0,0,0-.31-9.06c.05-.12.1-.24.14-.36,8.78-22.75-16.81-19-16.81-19l-2-5.47-1.1-3c8.85-2.39,9.53-9.53,9.53-9.53l.21,0,20.9,2.36c9.25-6.73,9.92-14.89,9.09-20.14a19.92,19.92,0,0,0-1.61-5.39c-1.36-31,7.49-30,7.49-30l.26-1.2L380.81,193l3-3.19,0,0,1.83-1.94h0l9.19-9.79,1.31-1.38v0l18.28-19.47c3.49,1.12,9.16.67,17.93-2.29a11.92,11.92,0,0,0,7.1,6.47v.32l-.11,4.53L443,169.3c-4.54,2-1.59,8.17-1.59,8.17-3.06,5.1,3.41,2.72,3.41,2.72,3.28,4.1,5.32,5,6.43,5.05a1.42,1.42,0,0,0,1.06-.28v11.23l-1.33.73-2.42,1.31-9,8.7-1.19,1.16-.37.36c-6.47-.68-11.91,6.12-11.91,6.12l-.35,15.32s2.39,5.45,10.6,5.79,21.71-7.15,21.71-7.15h14l13,11.72Z" transform="translate(-108.25 -5.83)"/></g><g id="bb359136-47d5-4258-9fa4-35a621c2a3bf" data-name="鼓"><path class="a9dbe03d-c9bb-4885-a7ea-53be58f51e70" d="M469.83,178.32c-.85-.17-11.23,1.53-14.81,7a4.13,4.13,0,0,1-2.72,1.45V185a1.42,1.42,0,0,1-1.06.28c-1.11-.06-3.15-1-6.43-5.05,0,0-6.47,2.38-3.41-2.72,0,0-2.95-6.13,1.59-8.17l-3.63-3.07.11-4.53v-.32l.24.08c6.27,2.11,17.44.75,36.59-14.36h0l7,1.37v22.62a7.35,7.35,0,0,1,.4,1.74h0C484,175.72,482.93,180.94,469.83,178.32Z" transform="translate(-108.25 -5.83)"/></g><g id="a2307253-d47e-405d-8095-c90c0348e799" data-name="肥"><path class="a9dbe03d-c9bb-4885-a7ea-53be58f51e70" d="M485.66,193a15.26,15.26,0,0,1-8.8,12.39c-.23-.24-.38-.37-.38-.37-4.24-.51-1.88-8.85-1.88-8.85H452.3v-9.44A4.13,4.13,0,0,0,455,185.3c3.58-5.45,14-7.15,14.81-7,13.1,2.62,14.18-2.6,13.86-5.49C489.11,177.12,494.24,184.27,485.66,193Z" transform="translate(-108.25 -5.83)"/></g></svg>